<svg xmlns="http://www.w3.org/2000/svg" width="28.637" height="31.263" viewBox="0 0 28.637 31.263">
  <g id="add" transform="translate(-21.506 0)">
    <g id="Group_1108" data-name="Group 1108" transform="translate(21.506 14.39)">
      <g id="Group_1107" data-name="Group 1107">
        <path id="Path_976" data-name="Path 976" d="M31.507,237.832h2.77a7.871,7.871,0,0,1,3.546.858l.966-1.931a10.015,10.015,0,0,0-4.512-1.085h-2.77a10.013,10.013,0,0,0-10,10v2.518a1.079,1.079,0,0,0,1.079,1.079H35.716v-2.159H23.664v-1.439A7.851,7.851,0,0,1,31.507,237.832Z" transform="translate(-21.506 -235.673)" fill="#ff5a50"/>
      </g>
    </g>
    <g id="Group_1110" data-name="Group 1110" transform="translate(26.255)">
      <g id="Group_1109" data-name="Group 1109">
        <path id="Path_977" data-name="Path 977" d="M105.9,0a6.62,6.62,0,1,0,6.62,6.62A6.627,6.627,0,0,0,105.9,0Zm0,11.08a4.461,4.461,0,1,1,4.461-4.461A4.466,4.466,0,0,1,105.9,11.08Z" transform="translate(-99.277 0)" fill="#ff5a50"/>
      </g>
    </g>
    <g id="Group_1112" data-name="Group 1112" transform="translate(33.45 14.57)">
      <g id="Group_1111" data-name="Group 1111">
        <path id="Path_978" data-name="Path 978" d="M225.466,238.619a8.346,8.346,0,1,0,8.346,8.346A8.356,8.356,0,0,0,225.466,238.619Zm0,14.534a6.188,6.188,0,1,1,6.187-6.188A6.195,6.195,0,0,1,225.466,253.153Z" transform="translate(-217.12 -238.619)" fill="#ff5a50"/>
      </g>
    </g>
    <g id="Group_1114" data-name="Group 1114" transform="translate(40.717 18.851)">
      <g id="Group_1113" data-name="Group 1113">
        <path id="Path_979" data-name="Path 979" d="M337.214,308.732a1.079,1.079,0,0,0-1.079,1.079v5.972a1.079,1.079,0,1,0,2.158,0v-5.972A1.079,1.079,0,0,0,337.214,308.732Z" transform="translate(-336.135 -308.732)" fill="#ff5a50"/>
      </g>
    </g>
    <g id="Group_1116" data-name="Group 1116" transform="translate(37.731 21.837)">
      <g id="Group_1115" data-name="Group 1115">
        <path id="Path_980" data-name="Path 980" d="M294.279,357.634h-5.972a1.079,1.079,0,1,0,0,2.158h5.972a1.079,1.079,0,1,0,0-2.158Z" transform="translate(-287.227 -357.634)" fill="#ff5a50"/>
      </g>
    </g>
  </g>
</svg>
