<svg xmlns="http://www.w3.org/2000/svg" width="14.587" height="14.587" viewBox="0 0 14.587 14.587">
  <g id="back-button" transform="translate(0 0)">
    <path id="Path_876" data-name="Path 876" d="M7.3,14.587A7.294,7.294,0,1,0,0,7.294,7.3,7.3,0,0,0,7.3,14.587ZM7.3,1A6.3,6.3,0,1,1,1,7.294,6.3,6.3,0,0,1,7.3,1Z" transform="translate(-0.002)" fill="#949494"/>
    <path id="Path_877" data-name="Path 877" d="M53.953,66.845a.5.5,0,1,0,.706-.706L52.741,64.22H58.3a.5.5,0,0,0,0-1H52.74L54.659,61.3a.5.5,0,0,0-.706-.706l-2.771,2.771a.5.5,0,0,0,0,.706Z" transform="translate(-47.639 -56.427)" fill="#949494"/>
  </g>
</svg>
