<svg xmlns="http://www.w3.org/2000/svg" width="29.927" height="29.927" viewBox="0 0 29.927 29.927">
  <g id="crm" transform="translate(-0.8 -0.8)">
    <path id="Path_930" data-name="Path 930" d="M27.967,24.7a2.851,2.851,0,0,0-1.251-5.086V19.1a2.384,2.384,0,0,0-2.381-2.381h-8.1V14.98a1.476,1.476,0,0,0,2.376-1.127,1.482,1.482,0,0,0,1.429-1.429A1.482,1.482,0,0,0,21.473,11a1.483,1.483,0,0,0,1-2.532l-.1-.1A4.515,4.515,0,0,0,15.763,2.24a4.513,4.513,0,0,0-6.37,6.391A1.477,1.477,0,0,0,10.53,11a1.482,1.482,0,0,0,1.429,1.429,1.482,1.482,0,0,0,1.429,1.429,1.463,1.463,0,0,0,1.9,1.367v1.5h-8.1A2.384,2.384,0,0,0,4.81,19.1v.519A2.851,2.851,0,0,0,3.559,24.7,4.291,4.291,0,0,0,1,28.621v1.9H9.572v-1.9A4.291,4.291,0,0,0,7.013,24.7a2.851,2.851,0,0,0-1.251-5.086V19.1a1.43,1.43,0,0,1,1.429-1.429h8.1v1.948A2.851,2.851,0,0,0,14.036,24.7a4.291,4.291,0,0,0-2.559,3.92v1.9h8.572v-1.9A4.291,4.291,0,0,0,17.49,24.7a2.851,2.851,0,0,0-1.251-5.086V17.668h8.1A1.43,1.43,0,0,1,25.764,19.1v.519A2.851,2.851,0,0,0,24.513,24.7a4.291,4.291,0,0,0-2.559,3.92v1.9h8.572v-1.9a4.291,4.291,0,0,0-2.559-3.92Zm-9.1-22.749a3.561,3.561,0,0,1,2.826,5.731L19.5,5.494a3.846,3.846,0,0,0,.408-.348l-.673-.673a2.759,2.759,0,0,1-1.964.813h-.755l-.813.813a.474.474,0,0,1-.337.14H13.579a.2.2,0,0,1-.14-.337L16.345,3a3.543,3.543,0,0,1,2.521-1.044Zm-6.205,0a3.537,3.537,0,0,1,2.424.957L12.766,5.228a1.15,1.15,0,0,0,.813,1.963h1.789a1.42,1.42,0,0,0,1.011-.419l.534-.534h.361a3.723,3.723,0,0,0,1.366-.26L21.8,9.137a.534.534,0,0,1-.755.755L19.91,8.759l-.673.673,1.133,1.133a.534.534,0,0,1-.755.755l-1.133-1.133-.673.673,1.133,1.133a.534.534,0,0,1-.755.755l-1.133-1.133-.673.673,1.133,1.133a.534.534,0,0,1-.755.755l-.159-.159a1.482,1.482,0,0,0-1.316-2.061,1.482,1.482,0,0,0-1.429-1.429A1.482,1.482,0,0,0,12.424,9.1a1.485,1.485,0,0,0-1.481-1.434,1.469,1.469,0,0,0-.875.291,3.561,3.561,0,0,1,2.593-6.006ZM10.048,9.515a.532.532,0,0,1,.156-.378l.361-.361a.534.534,0,0,1,.755.755l-.361.361a.534.534,0,0,1-.912-.378Zm1.429,1.429a.532.532,0,0,1,.156-.378l.361-.361a.534.534,0,0,1,.755.755l-.361.361a.534.534,0,0,1-.912-.378Zm1.429,1.429a.532.532,0,0,1,.156-.378l.361-.361a.534.534,0,0,1,.755.755l-.361.361a.534.534,0,0,1-.912-.378Zm1.963,1.963a.534.534,0,0,1-.378-.912l.361-.361a.534.534,0,0,1,.755.755l-.361.361A.532.532,0,0,1,14.868,14.334ZM8.62,28.621v.952H7.667v-1.9H6.715v1.9H3.857v-1.9H2.9v1.9H1.952v-.952a3.334,3.334,0,0,1,6.667,0ZM7.191,22.43a1.9,1.9,0,1,1-1.9-1.9A1.907,1.907,0,0,1,7.191,22.43ZM19.1,28.621v.952h-.952v-1.9h-.952v1.9H14.334v-1.9h-.952v1.9H12.43v-.952a3.334,3.334,0,0,1,6.667,0ZM17.668,22.43a1.9,1.9,0,1,1-1.9-1.9A1.907,1.907,0,0,1,17.668,22.43Zm6.667,0a1.9,1.9,0,1,1,1.9,1.9A1.907,1.907,0,0,1,24.335,22.43Zm5.239,7.143h-.952v-1.9h-.952v1.9H24.812v-1.9h-.952v1.9h-.952v-.952a3.334,3.334,0,0,1,6.667,0Z" transform="translate(0 0)" fill="#ff5b51" stroke="#ff5b51" stroke-width="0.4"/>
    <path id="Path_931" data-name="Path 931" d="M38,38h.952v.952H38Z" transform="translate(-19.379 -19.379)" fill="#ff5b51" stroke="#ff5b51" stroke-width="0.4"/>
    <path id="Path_932" data-name="Path 932" d="M42,38h.952v.952H42Z" transform="translate(-21.474 -19.379)" fill="#ff5b51" stroke="#ff5b51" stroke-width="0.4"/>
    <path id="Path_933" data-name="Path 933" d="M46,38h.952v.952H46Z" transform="translate(-23.57 -19.379)" fill="#ff5b51" stroke="#ff5b51" stroke-width="0.4"/>
    <path id="Path_934" data-name="Path 934" d="M16,38h.952v.952H16Z" transform="translate(-7.857 -19.379)" fill="#ff5b51" stroke="#ff5b51" stroke-width="0.4"/>
    <path id="Path_935" data-name="Path 935" d="M20,38h.952v.952H20Z" transform="translate(-9.952 -19.379)" fill="#ff5b51" stroke="#ff5b51" stroke-width="0.4"/>
    <path id="Path_936" data-name="Path 936" d="M24,38h.952v.952H24Z" transform="translate(-12.047 -19.379)" fill="#ff5b51" stroke="#ff5b51" stroke-width="0.4"/>
  </g>
</svg>
