<svg xmlns="http://www.w3.org/2000/svg" width="15.09" height="11.996" viewBox="0 0 15.09 11.996">
  <g id="Group_970" data-name="Group 970" transform="translate(0 0)">
    <g id="Group_969" data-name="Group 969">
      <path id="Path_904" data-name="Path 904" d="M203.076,123.671a.589.589,0,0,0-.749-.07c-.882.6-5.306,3.624-5.781,4.1a1.768,1.768,0,0,0,2.5,2.5c.475-.475,3.5-4.9,4.1-5.781A.59.59,0,0,0,203.076,123.671Zm-4.863,5.7a.589.589,0,0,1-.834-.834c.185-.183,1.441-1.078,2.986-2.153C199.291,127.927,198.4,129.183,198.213,129.367Z" transform="translate(-190.251 -121.406)" fill="#949494"/>
      <path id="Path_905" data-name="Path 905" d="M2.718,62.786l-.728.355a6.336,6.336,0,0,1-.4-5.357l.834.4a.589.589,0,1,0,.51-1.063l-.823-.395A6.374,6.374,0,0,1,6.956,53.7v.887a.589.589,0,0,0,1.179,0V53.7a6.293,6.293,0,0,1,2.027.534.589.589,0,1,0,.485-1.074A7.539,7.539,0,0,0,1.278,64.233a.589.589,0,0,0,.748.2l1.208-.589a.589.589,0,1,0-.517-1.06Z" transform="translate(0 -52.499)" fill="#949494"/>
      <path id="Path_906" data-name="Path 906" d="M392.925,191.841a.589.589,0,1,0-1.074.485,6.345,6.345,0,0,1-.254,5.717l-.76-.362a.589.589,0,1,0-.507,1.064l1.238.589a.589.589,0,0,0,.743-.2,7.527,7.527,0,0,0,.613-7.29Z" transform="translate(-378.5 -187.397)" fill="#949494"/>
    </g>
  </g>
</svg>
