<svg xmlns="http://www.w3.org/2000/svg" width="29.066" height="32.886" viewBox="0 0 29.066 32.886">
  <g id="Group_1106" data-name="Group 1106" transform="translate(-1503.217 -129.75)">
    <g id="save-money" transform="translate(1503.107 130)">
      <path id="Path_951" data-name="Path 951" d="M104.195,114.2a7.7,7.7,0,1,0,7.7-7.7A7.7,7.7,0,0,0,104.195,114.2Zm7.7-6.641a6.641,6.641,0,1,1-6.641,6.641A6.641,6.641,0,0,1,111.9,107.554Zm0,0" transform="translate(-96.94 -99.421)" fill="#ff5b51" stroke="#ff5b51" stroke-width="0.5"/>
      <path id="Path_952" data-name="Path 952" d="M25.28,328.473l-4.161,1.966a3.39,3.39,0,0,0-2.89-1.783l-3.842-.106a4.057,4.057,0,0,1-1.746-.451l-.391-.2a6.9,6.9,0,0,0-6.386.007l.024-.886a.531.531,0,0,0-.516-.546l-4.212-.116a.531.531,0,0,0-.545.516L.36,336.117a.531.531,0,0,0,.516.546l4.212.116H5.1a.531.531,0,0,0,.531-.517l.012-.442,1.094-.586a1.877,1.877,0,0,1,1.4-.153l6.535,1.834.035.009a7,7,0,0,0,1.436.148,7.089,7.089,0,0,0,2.961-.646.5.5,0,0,0,.066-.036l9.475-6.129a.531.531,0,0,0,.174-.708,2.683,2.683,0,0,0-3.544-1.08ZM1.437,335.615l.225-8.182,3.15.087L4.587,335.7Zm17.194-.139a6.023,6.023,0,0,1-3.683.411L8.43,334.058a2.938,2.938,0,0,0-2.19.239l-.559.3.15-5.44a5.839,5.839,0,0,1,5.932-.316l.391.2a5.132,5.132,0,0,0,2.205.57l3.842.105a2.33,2.33,0,0,1,2.214,1.857l-5.722-.158a.531.531,0,0,0-.029,1.062l6.315.174h.015a.531.531,0,0,0,.531-.517,3.371,3.371,0,0,0-.051-.689l4.268-2.017.012-.006a1.623,1.623,0,0,1,1.835.257Zm0,0" transform="translate(0 -304.685)" fill="#ff5b51" stroke="#ff5b51" stroke-width="0.5"/>
      <path id="Path_953" data-name="Path 953" d="M213.265,5.578V.531a.531.531,0,0,0-1.062,0V5.578a.531.531,0,0,0,1.062,0Zm0,0" transform="translate(-197.776)" fill="#ff5b51" stroke="#ff5b51" stroke-width="0.5"/>
      <path id="Path_954" data-name="Path 954" d="M273.265,42.922V40.531a.531.531,0,0,0-1.062,0v2.391a.531.531,0,0,0,1.062,0Zm0,0" transform="translate(-253.792 -37.344)" fill="#ff5b51" stroke="#ff5b51" stroke-width="0.5"/>
      <path id="Path_955" data-name="Path 955" d="M153.265,42.922V40.531a.531.531,0,1,0-1.062,0v2.391a.531.531,0,1,0,1.062,0Zm0,0" transform="translate(-141.76 -37.344)" fill="#ff5b51" stroke="#ff5b51" stroke-width="0.5"/>
    </g>
    <g id="great-britain-pound_2_" data-name="great-britain-pound (2)" transform="translate(1459.575 140.468)">
      <path id="Path_956" data-name="Path 956" d="M61.1,5.568a.171.171,0,0,0-.13-.054h-.914a.171.171,0,0,0-.13.054.179.179,0,0,0-.051.127V6.717H57.535V4.578h1.721a.183.183,0,0,0,.181-.181V3.657a.171.171,0,0,0-.054-.13.179.179,0,0,0-.127-.051H57.535V2.263a.892.892,0,0,1,.293-.694A1.109,1.109,0,0,1,58.6,1.3a1.491,1.491,0,0,1,.525.1,2.047,2.047,0,0,1,.389.181,1.232,1.232,0,0,1,.147.107.151.151,0,0,0,.13.04.173.173,0,0,0,.124-.068L60.5.948a.174.174,0,0,0,.039-.127.167.167,0,0,0-.056-.116A2.88,2.88,0,0,0,58.59,0a2.555,2.555,0,0,0-1.775.627,2.046,2.046,0,0,0-.7,1.592V3.477h-.536a.174.174,0,0,0-.181.181V4.4a.178.178,0,0,0,.051.127.171.171,0,0,0,.13.054h.536V6.739h-.547a.183.183,0,0,0-.181.181v.847a.174.174,0,0,0,.181.181h5.4a.174.174,0,0,0,.18-.181V5.695A.177.177,0,0,0,61.1,5.568Z" transform="translate(0 0)" fill="#ff5b51"/>
    </g>
  </g>
</svg>
