<svg xmlns="http://www.w3.org/2000/svg" width="29.546" height="29.118" viewBox="0 0 29.546 29.118">
  <g id="umbrella" transform="translate(0.25 -2.7)">
    <g id="Group_1003" data-name="Group 1003" transform="translate(0 2.95)">
      <g id="Group_1002" data-name="Group 1002" transform="translate(0 0)">
        <path id="Path_927" data-name="Path 927" d="M14.545,2.957c-.022-.007-.022-.007-.029-.007A14.5,14.5,0,0,0,0,17.451v.022a.729.729,0,0,0,.727.727.737.737,0,0,0,.7-.545,5.338,5.338,0,0,1,.806-1.78,2.832,2.832,0,0,1,1.94-.785,2.726,2.726,0,0,1,1.925.777,2.792,2.792,0,0,1,.792,1.947.727.727,0,1,0,1.453,0,2.678,2.678,0,0,1,2.63-2.724h.094A2.726,2.726,0,0,1,13,15.868a2.792,2.792,0,0,1,.792,1.947V28.081a1.962,1.962,0,1,1-3.923,0V26.795a.727.727,0,1,0-1.453,0v1.286a3.415,3.415,0,1,0,6.829,0V17.815a2.678,2.678,0,0,1,2.63-2.724h.094a2.743,2.743,0,0,1,1.933.777,2.792,2.792,0,0,1,.792,1.947.727.727,0,1,0,1.453,0,2.678,2.678,0,0,1,2.63-2.724h.094a2.743,2.743,0,0,1,1.933.777,3.536,3.536,0,0,1,.574,1.061,6.536,6.536,0,0,1,.24.727.733.733,0,0,0,.886.523.724.724,0,0,0,.545-.7A14.5,14.5,0,0,0,14.545,2.957Zm10.309,10.68a4.26,4.26,0,0,0-2.95,1.192l-.029.029a4.406,4.406,0,0,0-.465.581,5.093,5.093,0,0,0-.465-.581l-.015-.015a4.239,4.239,0,0,0-5.914-.015l-.029.029a4.668,4.668,0,0,0-.385.465.643.643,0,0,0-.167,0,4.668,4.668,0,0,0-.385-.465l-.015-.015a4.239,4.239,0,0,0-5.914-.015l-.029.029a4.407,4.407,0,0,0-.465.581,5.093,5.093,0,0,0-.465-.581l-.015-.015a4.252,4.252,0,0,0-5.325-.494,13.072,13.072,0,0,1,25.385-.007A4.24,4.24,0,0,0,24.855,13.637Z" transform="translate(0 -2.95)" fill="#ff5b51" stroke="#ff5b51" stroke-width="0.5"/>
      </g>
    </g>
    <g id="Group_1005" data-name="Group 1005" transform="translate(19.825 23.61)">
      <g id="Group_1004" data-name="Group 1004">
        <path id="Path_928" data-name="Path 928" d="M278.928,287.548a.724.724,0,0,0-1.024-.029L275.267,290l-1.148-1.177a.724.724,0,0,0-1.039,1.01l1.649,1.693a.728.728,0,0,0,1.017.022l3.153-2.979A.724.724,0,0,0,278.928,287.548Z" transform="translate(-272.875 -287.321)" fill="#ff5b51" stroke="#ff5b51" stroke-width="0.5"/>
      </g>
    </g>
    <g id="Group_1007" data-name="Group 1007" transform="translate(17.211 20.089)">
      <g id="Group_1006" data-name="Group 1006">
        <path id="Path_929" data-name="Path 929" d="M242.64,238.85a5.74,5.74,0,1,0,5.74,5.74A5.742,5.742,0,0,0,242.64,238.85Zm0,10.019a4.287,4.287,0,1,1,4.287-4.287A4.285,4.285,0,0,1,242.64,248.869Z" transform="translate(-236.9 -238.85)" fill="#ff5b51" stroke="#ff5b51" stroke-width="0.5"/>
      </g>
    </g>
  </g>
</svg>
