<svg xmlns="http://www.w3.org/2000/svg" width="127.738" height="36.084" viewBox="0 0 127.738 36.084">
  <g id="Group_12" data-name="Group 12" transform="translate(3615.941 511.106)">
    <path id="Path_70" data-name="Path 70" d="M141.6,13.2" transform="translate(-3629.803 -512.399)" fill="#cf3229" fill-rule="evenodd"/>
    <path id="Path_71" data-name="Path 71" d="M9.833,35.94H1.8V18.8H0V37.654H9.833V35.94Z" transform="translate(-3615.941 -512.947)" fill="#b5b5b5" fill-rule="evenodd"/>
    <path id="Path_72" data-name="Path 72" d="M21.613,26.214A4.991,4.991,0,0,0,19.9,24.951a6.388,6.388,0,0,0-2.345-.451,6.025,6.025,0,0,0-2.706.541,4.97,4.97,0,0,0-1.8,1.534,7.491,7.491,0,0,0-1.083,2.255,8.919,8.919,0,0,0-.361,2.706,9.133,9.133,0,0,0,.361,2.8A6.3,6.3,0,0,0,13.134,36.5a5.044,5.044,0,0,0,2.075,1.443,7.315,7.315,0,0,0,2.977.541,17.573,17.573,0,0,0,2.255-.18,5.294,5.294,0,0,0,1.8-.541c0-.271-.09-.451-.09-.722-.09-.271-.09-.541-.18-.722a10.907,10.907,0,0,1-1.624.451,11.106,11.106,0,0,1-1.8.18,5.09,5.09,0,0,1-3.7-1.263,5.5,5.5,0,0,1-1.263-3.969h9.562V30.454a6.913,6.913,0,0,0-.361-2.436A7.738,7.738,0,0,0,21.613,26.214Zm-8.119,4.059a5.332,5.332,0,0,1,1.263-3.157,3.809,3.809,0,0,1,2.887-1.083,3.434,3.434,0,0,1,1.714.361,4.048,4.048,0,0,1,1.173.992,3.139,3.139,0,0,1,.631,1.353,5,5,0,0,1,.18,1.624H13.494Z" transform="translate(-3617.077 -513.505)" fill="#b5b5b5" fill-rule="evenodd"/>
    <path id="Path_73" data-name="Path 73" d="M31.154,36.538a1.986,1.986,0,0,1-.722-.09.819.819,0,0,1-.631-.271,1.618,1.618,0,0,1-.451-.631,3.243,3.243,0,0,1-.18-.992v-8.66h3.608V24.45H29.169V20.3h-.09l-1.624,1.624V24.45H25.2v1.443h2.255v8.75a3.3,3.3,0,0,0,.9,2.616,3.611,3.611,0,0,0,2.436.812,7.894,7.894,0,0,0,2.165-.271c-.09-.541-.18-.992-.271-1.443A6.478,6.478,0,0,1,31.154,36.538Z" transform="translate(-3618.408 -513.094)" fill="#b5b5b5" fill-rule="evenodd"/>
    <path id="Path_75" data-name="Path 75" d="M125.8,10.2h3.7v5.142l-3.7-1.083" transform="translate(-3628.256 -512.105)" fill="#ff5b51" fill-rule="evenodd"/>
    <path id="Path_76" data-name="Path 76" d="M42.615,19,36.3,37.674h3.248l1.534-4.962h6.585L49.2,37.674h3.428L46.043,19ZM41.8,30.1l2.526-7.939L46.764,30.1Z" transform="translate(-3619.495 -512.966)" fill="#ff5b51" fill-rule="evenodd"/>
    <rect id="Rectangle_26" data-name="Rectangle 26" width="3.157" height="19.485" transform="translate(-3565.243 -494.778)" fill="#ff5b51"/>
    <rect id="Rectangle_27" data-name="Rectangle 27" width="3.157" height="19.485" transform="translate(-3559.109 -494.778)" fill="#ff5b51"/>
    <path id="Path_77" data-name="Path 77" d="M70.994,18.5a1.96,1.96,0,0,0-1.443.451,1.994,1.994,0,0,0,0,2.526,2.118,2.118,0,0,0,1.443.451,1.96,1.96,0,0,0,1.443-.451,1.994,1.994,0,0,0,0-2.526A1.96,1.96,0,0,0,70.994,18.5Z" transform="translate(-3622.706 -512.917)" fill="#ff5b51" fill-rule="evenodd"/>
    <rect id="Rectangle_28" data-name="Rectangle 28" width="3.157" height="13.622" transform="translate(-3553.335 -488.915)" fill="#ff5b51"/>
    <path id="Path_78" data-name="Path 78" d="M85.523,25.473a4.618,4.618,0,0,0-1.894-.9,10.062,10.062,0,0,0-2.436-.271,17.613,17.613,0,0,0-2.075.18c-.722.09-1.353.271-1.894.361l-.361,2.436a12.773,12.773,0,0,1,1.8-.361,5.844,5.844,0,0,1,1.8-.18,4.226,4.226,0,0,1,2.706.722,3.054,3.054,0,0,1,.9,2.436v.9a3.194,3.194,0,0,0-1.443-.812,6.2,6.2,0,0,0-1.985-.271,13.671,13.671,0,0,0-2.075.18,4.458,4.458,0,0,0-1.624.722,2.949,2.949,0,0,0-.992,1.353,4.342,4.342,0,0,0-.361,1.985v.271a3.731,3.731,0,0,0,.361,1.894,2.689,2.689,0,0,0,.9,1.263,4.341,4.341,0,0,0,1.443.722,6.148,6.148,0,0,0,1.894.18,6.913,6.913,0,0,0,2.436-.361,3.637,3.637,0,0,0,1.624-1.263l.271,1.353h2.706v-8.75a6.388,6.388,0,0,0-.451-2.345A6.316,6.316,0,0,0,85.523,25.473Zm-1.443,8.39a1.927,1.927,0,0,1-.722,1.534,3.468,3.468,0,0,1-2.165.541,3.791,3.791,0,0,1-1.985-.451,1.581,1.581,0,0,1-.631-1.443v-.18a1.776,1.776,0,0,1,.541-1.443,2.549,2.549,0,0,1,1.8-.451h.451a3.791,3.791,0,0,1,1.985.451,1.424,1.424,0,0,1,.631,1.353v.09Z" transform="translate(-3623.342 -513.485)" fill="#ff5b51" fill-rule="evenodd"/>
    <path id="Path_79" data-name="Path 79" d="M101.955,25.373a5.281,5.281,0,0,0-1.534-.9,7.035,7.035,0,0,0-1.985-.271,6.034,6.034,0,0,0-2.345.451A3.61,3.61,0,0,0,94.377,26l-.18-1.443H91.4V38.183h3.157V30.244a4.116,4.116,0,0,1,.722-2.616,2.869,2.869,0,0,1,2.255-.812,2.52,2.52,0,0,1,1.985.722,3.84,3.84,0,0,1,.631,2.345v8.3h3.157v-9.2a4.753,4.753,0,0,0-.361-2.075A6.422,6.422,0,0,0,101.955,25.373Z" transform="translate(-3624.889 -513.475)" fill="#ff5b51" fill-rule="evenodd"/>
    <path id="Path_80" data-name="Path 80" d="M110.569,27.628a3.7,3.7,0,0,1,2.887-.9,5.973,5.973,0,0,1,1.353.09c.451.09.812.18,1.173.271l.541-2.345a10.488,10.488,0,0,0-1.624-.361A13.458,13.458,0,0,0,113,24.2a8.811,8.811,0,0,0-2.887.451,5,5,0,0,0-1.985,1.263,5.515,5.515,0,0,0-1.173,1.985,7.983,7.983,0,0,0-.361,2.616v1.353a11.656,11.656,0,0,0,.271,2.616,4.581,4.581,0,0,0,.992,1.985,5.116,5.116,0,0,0,1.894,1.353,9.4,9.4,0,0,0,2.977.451,10.359,10.359,0,0,0,1.714-.09,14.655,14.655,0,0,0,1.714-.361l.361-2.345a6.963,6.963,0,0,1-1.353.18,7.76,7.76,0,0,1-1.443.09,4.162,4.162,0,0,1-3.067-.9,4.408,4.408,0,0,1-.9-3.157V30.6A4.515,4.515,0,0,1,110.569,27.628Z" transform="translate(-3626.377 -513.475)" fill="#ff5b51" fill-rule="evenodd"/>
    <path id="Path_81" data-name="Path 81" d="M129.555,25.914a4.991,4.991,0,0,0-1.714-1.263,7.7,7.7,0,0,0-2.706-.451,8.649,8.649,0,0,0-2.8.451A3.681,3.681,0,0,0,120.443,26a4.183,4.183,0,0,0-1.083,2.075A8.548,8.548,0,0,0,119,30.785v1.083a8.769,8.769,0,0,0,.361,2.8,4.183,4.183,0,0,0,1.083,2.075A5,5,0,0,0,122.428,38a10.005,10.005,0,0,0,3.067.451h1.173c.361,0,.812-.09,1.173-.09.361-.09.722-.09,1.083-.18a4.194,4.194,0,0,0,.812-.271l.451-2.255a7.952,7.952,0,0,1-1.894.271,10.359,10.359,0,0,1-1.714.09,12.667,12.667,0,0,1-2.075-.18,3.139,3.139,0,0,1-1.353-.631,2.3,2.3,0,0,1-.722-1.083,4.883,4.883,0,0,1-.271-1.714h7.127a1.759,1.759,0,0,0,.722-.09.689.689,0,0,0,.451-.18,1.971,1.971,0,0,0,.271-.451c0-.18.09-.451.09-.812V29.793a8.191,8.191,0,0,0-.271-2.075A7.048,7.048,0,0,0,129.555,25.914Zm-1.8,4.24h-5.683a4.226,4.226,0,0,1,.722-2.706,2.664,2.664,0,0,1,2.165-.812,2.6,2.6,0,0,1,2.075.722,3.362,3.362,0,0,1,.631,2.255v.541Z" transform="translate(-3627.591 -513.475)" fill="#ff5b51" fill-rule="evenodd"/>
    <g id="Group_9" data-name="Group 9" transform="translate(-3527.084 -511.106)">
      <path id="Path_74" data-name="Path 74" d="M99.312,12.2,98.5,14.545c18.583-1.263,40.234,3.7,35.543,13.171C140.628,18.7,127.367,12.29,99.312,12.2Z" transform="translate(-98.5 -1.194)" fill="#b5b5b5" fill-rule="evenodd"/>
      <path id="Path_82" data-name="Path 82" d="M107.541,17.7,107,19.414c13.261-.9,28.777,2.706,25.439,9.382C137.13,22.391,127.658,17.79,107.541,17.7Z" transform="translate(-99.332 -1.733)" fill="#ff5b51" fill-rule="evenodd"/>
      <path id="Path_83" data-name="Path 83" d="M123.653,0,109.4,11.276l2.345.18L123.653,1.8,132.4,8.75v7.487l1.534.992V10.013l2.345,1.894h2.165Z" transform="translate(-99.567)" fill="#ff5b51" fill-rule="evenodd"/>
    </g>
  </g>
</svg>
