<svg xmlns="http://www.w3.org/2000/svg" width="24.226" height="27.118" viewBox="0 0 24.226 27.118">
  <g id="check-list-and-pencil" transform="translate(-16.23 0.25)">
    <path id="Path_141" data-name="Path 141" d="M143.862,85.446,141.018,82.6a.658.658,0,0,0-.931,0l-2.529,2.529h0l-6.488,6.488a.659.659,0,0,0-.184.359l-.558,3.4a.658.658,0,0,0,.65.765.651.651,0,0,0,.106-.009l3.4-.558a.659.659,0,0,0,.359-.184l9.018-9.018a.658.658,0,0,0,0-.931Zm-9.8,8.868-2.288.375.375-2.288,5.873-5.873,1.913,1.913Zm6.8-6.8L138.954,85.6l1.6-1.6,1.913,1.913Z" transform="translate(-103.849 -75.177)" fill="#ff5a50" stroke="#ff5b51" stroke-width="0.5"/>
    <path id="Path_142" data-name="Path 142" d="M36.807,16.923a.658.658,0,0,0-.658.658V25.3H17.8V1.316H36.148v4.29a.658.658,0,1,0,1.316,0V.658A.658.658,0,0,0,36.807,0H17.138a.658.658,0,0,0-.658.658v25.3a.658.658,0,0,0,.658.658H36.807a.658.658,0,0,0,.658-.658V17.582A.658.658,0,0,0,36.807,16.923Z" transform="translate(0)" fill="#ff5a50" stroke="#ff5b51" stroke-width="0.5"/>
    <path id="Path_143" data-name="Path 143" d="M56.9,40.1a.658.658,0,0,0-.931,0l-2.508,2.508-.993-.993a.658.658,0,1,0-.931.931L53,44.008a.658.658,0,0,0,.931,0L56.9,41.034A.658.658,0,0,0,56.9,40.1Z" transform="translate(-31.808 -36.409)" fill="#ff5a50" stroke="#ff5b51" stroke-width="0.5"/>
    <path id="Path_144" data-name="Path 144" d="M56.9,128.453a.658.658,0,0,0-.931,0l-2.508,2.508-.993-.993a.658.658,0,1,0-.931.931L53,132.357a.658.658,0,0,0,.931,0l2.974-2.974A.658.658,0,0,0,56.9,128.453Z" transform="translate(-31.808 -117.005)" fill="#ff5a50" stroke="#ff5b51" stroke-width="0.5"/>
    <path id="Path_145" data-name="Path 145" d="M55.972,216.8l-2.508,2.508-.993-.993a.658.658,0,1,0-.931.931L53,220.706a.658.658,0,0,0,.931,0l2.974-2.974a.658.658,0,1,0-.931-.931Z" transform="translate(-31.808 -197.601)" fill="#ff5a50" stroke="#ff5b51" stroke-width="0.5"/>
  </g>
</svg>
