<svg xmlns="http://www.w3.org/2000/svg" width="23.881" height="30.116" viewBox="0 0 23.881 30.116">
  <path id="shield_2_" data-name="shield (2)" d="M22.7,5.1c-5.559,0-9.817-4.63-9.888-4.709a1.178,1.178,0,0,0-1.751,0C11.023.436,6.755,5.1,1.177,5.1A1.176,1.176,0,0,0,0,6.275C0,16.614,2.086,25.56,11.436,30a1.177,1.177,0,0,0,1.01,0c9.371-4.452,11.436-13.428,11.436-23.727A1.176,1.176,0,0,0,22.7,5.1ZM11.941,27.628C4.278,23.707,2.478,16.072,2.36,7.4a17.237,17.237,0,0,0,9.581-4.567A17.238,17.238,0,0,0,21.521,7.4C21.4,16.074,19.6,23.707,11.941,27.628ZM10.733,16.2l4.788-4.788a1.176,1.176,0,0,1,1.664,1.664l-5.62,5.62a1.177,1.177,0,0,1-1.664,0L6.7,15.5a1.176,1.176,0,1,1,1.664-1.664Zm0,0" transform="translate(-0.001 0)" fill="#ff5b51"/>
</svg>
