<svg id="calendar_1_" data-name="calendar (1)" xmlns="http://www.w3.org/2000/svg" width="25.559" height="25.559" viewBox="0 0 25.559 25.559">
  <path id="Path_102" data-name="Path 102" d="M24.494,3.195H21.3V1.065a1.065,1.065,0,0,0-2.13,0v2.13H6.39V1.065a1.065,1.065,0,0,0-2.13,0v2.13H1.065A1.065,1.065,0,0,0,0,4.26V24.494a1.065,1.065,0,0,0,1.065,1.065H24.494a1.065,1.065,0,0,0,1.065-1.065V4.26A1.065,1.065,0,0,0,24.494,3.195ZM2.13,23.429V11.714H17.039a1.065,1.065,0,0,0,0-2.13H2.13V5.325H4.26V6.39a1.065,1.065,0,0,0,2.13,0V5.325H19.169V6.39a1.065,1.065,0,0,0,2.13,0V5.325h2.13v4.26H21.3a1.065,1.065,0,0,0,0,2.13h2.13V23.429Zm0,0" fill="#ff5b51"/>
  <path id="Path_103" data-name="Path 103" d="M66.13,208H65.065a1.065,1.065,0,0,0,0,2.13H66.13a1.065,1.065,0,0,0,0-2.13Zm0,0" transform="translate(-59.74 -194.156)" fill="#ff5b51"/>
  <path id="Path_104" data-name="Path 104" d="M138.13,208h-1.065a1.065,1.065,0,0,0,0,2.13h1.065a1.065,1.065,0,0,0,0-2.13Zm0,0" transform="translate(-126.948 -194.156)" fill="#ff5b51"/>
  <path id="Path_105" data-name="Path 105" d="M202.13,208h-1.065a1.065,1.065,0,0,0,0,2.13h1.065a1.065,1.065,0,0,0,0-2.13Zm0,0" transform="translate(-186.688 -194.156)" fill="#ff5b51"/>
  <path id="Path_106" data-name="Path 106" d="M274.13,208h-1.065a1.065,1.065,0,0,0,0,2.13h1.065a1.065,1.065,0,0,0,0-2.13Zm0,0" transform="translate(-253.896 -194.156)" fill="#ff5b51"/>
  <path id="Path_107" data-name="Path 107" d="M66.13,272H65.065a1.065,1.065,0,0,0,0,2.13H66.13a1.065,1.065,0,0,0,0-2.13Zm0,0" transform="translate(-59.74 -253.896)" fill="#ff5b51"/>
  <path id="Path_108" data-name="Path 108" d="M138.13,272h-1.065a1.065,1.065,0,0,0,0,2.13h1.065a1.065,1.065,0,0,0,0-2.13Zm0,0" transform="translate(-126.948 -253.896)" fill="#ff5b51"/>
  <path id="Path_109" data-name="Path 109" d="M202.13,272h-1.065a1.065,1.065,0,0,0,0,2.13h1.065a1.065,1.065,0,0,0,0-2.13Zm0,0" transform="translate(-186.688 -253.896)" fill="#ff5b51"/>
  <path id="Path_110" data-name="Path 110" d="M274.13,272h-1.065a1.065,1.065,0,0,0,0,2.13h1.065a1.065,1.065,0,0,0,0-2.13Zm0,0" transform="translate(-253.896 -253.896)" fill="#ff5b51"/>
</svg>
