<svg xmlns="http://www.w3.org/2000/svg" width="13.061" height="12.843" viewBox="0 0 13.061 12.843">
  <g id="stats" transform="translate(0 0)">
    <path id="Path_965" data-name="Path 965" d="M11.973,175.837V168H10.231v7.837H8.925v-4.789H7.184v4.789H5.877v-6.966H4.136v6.966H2.83v-3.918H1.088v3.918H0v.435H13.061v-.435Zm0,0" transform="translate(0 -163.429)" fill="#949494"/>
    <path id="Path_966" data-name="Path 966" d="M49.932,0a.871.871,0,0,0-.871.871.861.861,0,0,0,.123.44l-1.86,1.86a.869.869,0,0,0-1.056.132l-.012.015-1.6-1.306a.869.869,0,1,0-1.573.172L41.229,4.042a.871.871,0,1,0,.308.308L43.4,2.489a.868.868,0,0,0,1.029-.107l1.617,1.324a.869.869,0,1,0,1.589-.227l1.86-1.86A.869.869,0,1,0,49.932,0Zm0,0" transform="translate(-38.83)" fill="#949494"/>
  </g>
</svg>
