<svg xmlns="http://www.w3.org/2000/svg" width="14.024" height="14.024" viewBox="0 0 14.024 14.024">
  <g id="check-mark-button_1_" data-name="check-mark-button (1)" transform="translate(0)">
    <g id="Group_1092" data-name="Group 1092" transform="translate(0 0)">
      <path id="Path_974" data-name="Path 974" d="M7.012,0a7.012,7.012,0,1,0,7.012,7.012A7.02,7.02,0,0,0,7.012,0Zm0,12.894a5.882,5.882,0,1,1,5.882-5.882A5.889,5.889,0,0,1,7.012,12.894Z" transform="translate(0 0)" fill="#949494"/>
      <path id="Path_975" data-name="Path 975" d="M20.577,18.478,17.3,21.752l-1.2-1.2a.565.565,0,1,0-.8.8l1.6,1.6a.564.564,0,0,0,.8,0l3.673-3.673a.565.565,0,0,0-.8-.8Z" transform="translate(-11.329 -13.702)" fill="#949494"/>
    </g>
  </g>
</svg>
