<svg xmlns="http://www.w3.org/2000/svg" width="29.192" height="29.287" viewBox="0 0 29.192 29.287">
  <g id="idea_1_" data-name="idea (1)" transform="translate(-0.16 0.254)">
    <g id="Group_1035" data-name="Group 1035" transform="translate(0.36 9.357)">
      <g id="Group_1034" data-name="Group 1034" transform="translate(0)">
        <path id="Path_941" data-name="Path 941" d="M3.568,166.155H1.058a.7.7,0,1,0,0,1.4h2.51a.7.7,0,1,0,0-1.4Z" transform="translate(-0.36 -166.155)" fill="#ff5b51" stroke="#ff5b51" stroke-width="0.4"/>
      </g>
    </g>
    <g id="Group_1037" data-name="Group 1037" transform="translate(25.247 9.357)">
      <g id="Group_1036" data-name="Group 1036">
        <path id="Path_942" data-name="Path 942" d="M445.5,166.155h-2.51a.7.7,0,1,0,0,1.4h2.51a.7.7,0,1,0,0-1.4Z" transform="translate(-442.293 -166.155)" fill="#ff5b51" stroke="#ff5b51" stroke-width="0.4"/>
      </g>
    </g>
    <g id="Group_1039" data-name="Group 1039" transform="translate(3.425 18.165)">
      <g id="Group_1038" data-name="Group 1038">
        <path id="Path_943" data-name="Path 943" d="M57.8,322.768a.7.7,0,0,0-.986,0l-1.826,1.826a.7.7,0,1,0,.986.986l1.826-1.826A.7.7,0,0,0,57.8,322.768Z" transform="translate(-54.782 -322.563)" fill="#ff5b51" stroke="#ff5b51" stroke-width="0.4"/>
      </g>
    </g>
    <g id="Group_1041" data-name="Group 1041" transform="translate(21.64 0)">
      <g id="Group_1040" data-name="Group 1040" transform="translate(0 0)">
        <path id="Path_944" data-name="Path 944" d="M381.2.2a.7.7,0,0,0-.986,0L378.44,1.98a.7.7,0,0,0,.986.986L381.2,1.191A.7.7,0,0,0,381.2.2Z" transform="translate(-378.235 0)" fill="#ff5b51" stroke="#ff5b51" stroke-width="0.4"/>
      </g>
    </g>
    <g id="Group_1043" data-name="Group 1043" transform="translate(4.702 0)">
      <g id="Group_1042" data-name="Group 1042" transform="translate(0 0)">
        <path id="Path_945" data-name="Path 945" d="M80.423,1.981,78.648.206a.7.7,0,0,0-.986.986l1.775,1.775a.7.7,0,0,0,.986-.987Z" transform="translate(-77.457 -0.002)" fill="#ff5b51" stroke="#ff5b51" stroke-width="0.4"/>
      </g>
    </g>
    <g id="Group_1045" data-name="Group 1045" transform="translate(22.873 18.172)">
      <g id="Group_1044" data-name="Group 1044">
        <path id="Path_946" data-name="Path 946" d="M403.15,324.708l-1.819-1.819a.7.7,0,0,0-.986.986l1.819,1.819a.7.7,0,0,0,.986-.986Z" transform="translate(-400.14 -322.684)" fill="#ff5b51" stroke="#ff5b51" stroke-width="0.4"/>
      </g>
    </g>
    <g id="Group_1047" data-name="Group 1047" transform="translate(6.009 1.894)">
      <g id="Group_1046" data-name="Group 1046">
        <path id="Path_947" data-name="Path 947" d="M109.419,33.636a8.965,8.965,0,0,0-8.747,9.15,12.266,12.266,0,0,0,2.305,6.927,8.778,8.778,0,0,1,1.72,5.082v4.385a1.4,1.4,0,0,0,1.4,1.4h6.655a1.4,1.4,0,0,0,1.4-1.4V54.794a8.778,8.778,0,0,1,1.72-5.082,12.266,12.266,0,0,0,2.305-6.927A8.965,8.965,0,0,0,109.419,33.636Zm3.327,25.543h-6.655v-.912h3.327a.7.7,0,1,0,0-1.4h-3.327V55.96h6.655v3.22Zm-4.305-13.013-.933-1.993h3.822l-.933,1.993a.7.7,0,0,0-.064.249l-.541,8.149h-.746l-.541-8.149A.7.7,0,0,0,108.441,46.166Zm6.284,2.737a10.213,10.213,0,0,0-1.976,5.662H111.19l.526-7.926,1.342-2.867a.7.7,0,0,0-.632-.993h-6.015a.7.7,0,0,0-.632.993l1.342,2.867.526,7.926h-1.559a10.212,10.212,0,0,0-1.976-5.662,11,11,0,0,1-2.046-6.117,7.363,7.363,0,1,1,14.7,0A11,11,0,0,1,114.725,48.9Z" transform="translate(-100.672 -33.636)" fill="#ff5b51" stroke="#ff5b51" stroke-width="0.4"/>
      </g>
    </g>
  </g>
</svg>
