<svg xmlns="http://www.w3.org/2000/svg" width="16.575" height="16.589" viewBox="0 0 16.575 16.589">
  <g id="call-answer" transform="translate(16.576 5.103) rotate(114)">
    <g id="Group_998" data-name="Group 998" transform="translate(0 0)">
      <g id="Group_997" data-name="Group 997">
        <path id="Path_934" data-name="Path 934" d="M.282,10.316,2.223,8.374A1.012,1.012,0,0,1,3.651,8.4l.978.978.193-.107a9.735,9.735,0,0,0,2.353-1.7A9.79,9.79,0,0,0,8.881,5.213c.036-.065.071-.129.105-.189l-.657-.656-.323-.323A1.012,1.012,0,0,1,7.98,2.618L9.922.675A1.011,1.011,0,0,1,11.35.7l.547.55-.015.015a3.165,3.165,0,0,1,.451.8,3.3,3.3,0,0,1,.2.807c.256,2.126-.715,4.068-3.351,6.7-3.644,3.644-6.58,3.369-6.707,3.355a3.281,3.281,0,0,1-.809-.2,3.154,3.154,0,0,1-.793-.449l-.012.011-.554-.543A1.013,1.013,0,0,1,.282,10.316Z" transform="translate(0 -0.394)" fill="#6c757d"/>
      </g>
    </g>
  </g>
</svg>
