<svg xmlns="http://www.w3.org/2000/svg" width="90.508" height="90.51" viewBox="0 0 90.508 90.51">
  <g id="Group_1261" data-name="Group 1261" transform="translate(-1299 -1093)">
    <rect id="Rectangle_841" data-name="Rectangle 841" width="64" height="64" rx="5" transform="translate(1344.255 1093) rotate(45)" fill="rgba(243,199,77,0.2)"/>
    <g id="Group_1260" data-name="Group 1260">
      <g id="revenue" transform="translate(1326 1118.999)">
        <path id="Path_1003" data-name="Path 1003" d="M140.654,9.9a9.827,9.827,0,1,0-9.827,9.827A9.9,9.9,0,0,0,140.654,9.9Zm-10.919,6.551v-.97a3.27,3.27,0,0,1-2.2-3.078,1.092,1.092,0,0,1,2.184,0,1.092,1.092,0,1,0,1.092-1.092,3.267,3.267,0,0,1-1.08-6.354V3.349a1.092,1.092,0,1,1,2.184,0V4.965a3.271,3.271,0,0,1,2.172,3.071,1.092,1.092,0,0,1-2.184,0,1.092,1.092,0,1,0-1.092,1.092,3.268,3.268,0,0,1,1.1,6.347v.977a1.092,1.092,0,1,1-2.184,0Zm0,0" transform="translate(-112.192)" fill="#f3c74d"/>
        <path id="Path_1004" data-name="Path 1004" d="M1.091,308.207l6.449-.022c.194.032,10.407,1.886,12.668,2.263a1.053,1.053,0,0,0,.791-.177c2.46-1.722,16.8-11.861,15.812-11.171a1.1,1.1,0,0,0,.262-1.529,3.3,3.3,0,0,0-4.564-.786c-.218.153-10.834,7.524-10.162,7.054h-8.08a1.092,1.092,0,1,1,0-2.184h6.551a2.184,2.184,0,0,0,0-4.368H19.464a1.086,1.086,0,0,1-.721-.262,8.73,8.73,0,0,0-3.036-1.922c-4.959-1.753-8.108,2.027-8.407,2.184H1.091A1.092,1.092,0,0,0,0,298.38v8.739a1.088,1.088,0,0,0,1.092,1.088Zm0,0" transform="translate(0 -273.193)" fill="#f3c74d"/>
      </g>
      <circle id="Ellipse_36" data-name="Ellipse 36" cx="8.5" cy="8.5" r="8.5" transform="translate(1336 1121)" fill="#f3c74d"/>
    </g>
    <path id="pound-sterling_1_" data-name="pound-sterling (1)" d="M64.244,3.386V3.047a3.047,3.047,0,1,0-6.094,0v2.37H56.118V6.771H58.07a7.359,7.359,0,0,1-1.161,3.01.677.677,0,0,0,.563,1.053h6.094V9.48H58.637a8.689,8.689,0,0,0,.794-2.709h2.1V5.417H59.5V3.047a1.693,1.693,0,1,1,3.386,0v.339Z" transform="translate(1284.441 1123.306)" fill="#fff" stroke="#fff" stroke-width="0.5"/>
  </g>
</svg>
