<svg id="dashboard" xmlns="http://www.w3.org/2000/svg" width="26.547" height="20.858" viewBox="0 0 26.547 20.858">
  <path id="Path_877" data-name="Path 877" d="M25.5,62.933a13.039,13.039,0,0,0-7.066-7.066,13.16,13.16,0,0,0-10.311,0,13.042,13.042,0,0,0-7.066,7.066A13.243,13.243,0,0,0,2.089,75.244a.9.9,0,0,0,.8.43H23.658a.9.9,0,0,0,.8-.43A13.244,13.244,0,0,0,25.5,62.933ZM11.933,57.267a1.9,1.9,0,1,1-.556,1.341A1.827,1.827,0,0,1,11.933,57.267Zm-6.8,12.162a1.828,1.828,0,0,1-1.341.556,1.828,1.828,0,0,1-1.341-.556,1.9,1.9,0,0,1,0-2.681,1.827,1.827,0,0,1,1.341-.556,1.827,1.827,0,0,1,1.341.556,1.9,1.9,0,0,1,0,2.681Zm2.844-6.637a1.9,1.9,0,0,1-2.682,0,1.9,1.9,0,0,1,1.341-3.237,1.9,1.9,0,0,1,1.341,3.237Zm8.392.126-1.5,5.659a2.817,2.817,0,0,1,1.067,1.348,2.849,2.849,0,0,1-1.23,3.466,2.769,2.769,0,0,1-2.163.3,2.72,2.72,0,0,1-1.733-1.318,2.837,2.837,0,0,1,.637-3.622,2.815,2.815,0,0,1,1.585-.645l1.5-5.659a.936.936,0,0,1,.444-.585.884.884,0,0,1,.711-.1.97.97,0,0,1,.682,1.156Zm2.2-.126a1.9,1.9,0,1,1,1.341.556A1.826,1.826,0,0,1,18.569,62.792ZM24.1,69.429a1.9,1.9,0,1,1,.555-1.341A1.828,1.828,0,0,1,24.1,69.429Z" transform="translate(0 -54.815)" fill="#f8e0df"/>
</svg>
