<svg height="640pt" viewBox="0 -52 640 640" width="640pt" xmlns="http://www.w3.org/2000/svg"><path d="m253.089844 20.621094 68.394531 86.640625h-174.46875c-31.152344 0-56.371094 25.21875-56.371094 56.371093v371.777344h-34.273437c-31.152344 0-56.371094-25.21875-56.371094-56.378906v-422.660156c0-31.152344 25.21875-56.371094 56.371094-56.371094h153.105468c16.765626 0 32.785157 7.5625 43.613282 20.621094zm0 0" fill="#00efd1"/><path d="m640 160.816406v318.367188c0 31.152344-25.21875 56.371094-56.371094 56.371094h-507.816406v-374.738282c0-31.152344 25.21875-56.371094 56.371094-56.371094h451.445312c31.152344 0 56.371094 25.21875 56.371094 56.371094zm0 0" fill="#00acea"/><path d="m416.875 371.480469c13.796875-18.246094 21.363281-40.351563 21.363281-63.496094 0-58.304687-47.472656-105.632813-105.925781-105.632813-58.449219 0-105.921875 47.328126-105.921875 105.632813 0 58.300781 47.472656 105.628906 105.921875 105.628906 23.292969 0 45.398438-7.417969 63.5-21.214843l43.609375 43.464843c2.96875 2.816407 6.679687 4.300781 10.539063 4.300781 3.851562 0 7.5625-1.484374 10.53125-4.300781 5.789062-5.785156 5.789062-15.128906 0-20.917969zm-84.5625 12.3125c-41.984375 0-76.253906-34.125-76.253906-75.960938 0-41.832031 34.269531-75.957031 76.253906-75.957031s76.257812 34.125 76.257812 75.957031c0 20.328125-8.015624 39.464844-22.402343 53.707031-14.390625 14.390626-33.53125 22.253907-53.855469 22.253907zm0 0" fill="#083863"/></svg>