<svg xmlns="http://www.w3.org/2000/svg" width="64" height="64" viewBox="0 0 64 64">
  <g id="Group_1233" data-name="Group 1233" transform="translate(-1237 -495)">
    <circle id="Ellipse_33" data-name="Ellipse 33" cx="32" cy="32" r="32" transform="translate(1237 495)" fill="rgba(214,179,39,0.2)"/>
    <g id="Group_1227" data-name="Group 1227" transform="translate(-1)">
      <g id="calendar" transform="translate(1255 511)">
        <g id="Group_1226" data-name="Group 1226" transform="translate(0 0)">
          <path id="Path_994" data-name="Path 994" d="M11.659,15.986a.529.529,0,0,1-.531.531H9.134a.529.529,0,0,1-.531-.531V13.993a.529.529,0,0,1,.531-.531h1.993a.529.529,0,0,1,.531.531ZM15.823,14a.529.529,0,0,0-.531-.531H13.3a.529.529,0,0,0-.531.531v1.993a.529.529,0,0,0,.531.531h1.993a.529.529,0,0,0,.531-.531Zm4.164,0a.529.529,0,0,0-.531-.531H17.462a.529.529,0,0,0-.531.531v1.993a.529.529,0,0,0,.531.531h1.993a.529.529,0,0,0,.531-.531Zm-8.328,4.052a.529.529,0,0,0-.531-.531H9.134a.529.529,0,0,0-.531.531v1.993a.529.529,0,0,0,.531.531h1.993a.529.529,0,0,0,.531-.531Zm4.164,0a.529.529,0,0,0-.531-.531H13.3a.529.529,0,0,0-.531.531v1.993a.529.529,0,0,0,.531.531h1.993a.529.529,0,0,0,.531-.531Zm3.633-.531H17.462a.529.529,0,0,0-.531.531v1.993a.529.529,0,0,0,.531.531h1.993a.529.529,0,0,0,.531-.531V18.052A.529.529,0,0,0,19.455,17.521Zm-12.5,4.052H4.97a.529.529,0,0,0-.531.531V24.1a.529.529,0,0,0,.531.531H6.964a.529.529,0,0,0,.531-.531V22.1A.535.535,0,0,0,6.957,21.573Zm.538-3.521a.529.529,0,0,0-.531-.531H4.97a.529.529,0,0,0-.531.531v1.993a.529.529,0,0,0,.531.531H6.964a.529.529,0,0,0,.531-.531Zm7.8,3.521H13.3a.529.529,0,0,0-.531.531V24.1a.529.529,0,0,0,.531.531h1.993a.529.529,0,0,0,.531-.531V22.1A.529.529,0,0,0,15.291,21.573Zm-4.164,0H9.134A.529.529,0,0,0,8.6,22.1V24.1a.529.529,0,0,0,.531.531h1.993a.529.529,0,0,0,.531-.531V22.1A.529.529,0,0,0,11.128,21.573Zm12.491-5.049a.529.529,0,0,0,.531-.531V14a.529.529,0,0,0-.531-.531H21.626a.529.529,0,0,0-.531.531v1.993a.529.529,0,0,0,.531.531ZM3.128,28.957H18.255a8.153,8.153,0,0,1-.387-2.413H3.128a.709.709,0,0,1-.708-.708V11.587H26.137v6.629a8.146,8.146,0,0,1,2.413.374V6.6a3.131,3.131,0,0,0-3.128-3.128h-3.5V1.541A1.142,1.142,0,0,0,20.78.4H19a1.142,1.142,0,0,0-1.141,1.141V3.475H10.688V1.541A1.142,1.142,0,0,0,9.547.4H7.77A1.142,1.142,0,0,0,6.629,1.541V3.475h-3.5A3.131,3.131,0,0,0,0,6.6V25.835A3.13,3.13,0,0,0,3.128,28.957Zm28.95-2.5A5.974,5.974,0,1,1,26.1,20.478,5.975,5.975,0,0,1,32.078,26.452ZM29.121,24.9a.693.693,0,0,0-.21-.5.716.716,0,0,0-1.016,0L25.3,27l-1-1a.716.716,0,0,0-1.016,0,.7.7,0,0,0-.21.5.693.693,0,0,0,.21.5l1.5,1.5a.716.716,0,0,0,1.016,0l3.1-3.1A.675.675,0,0,0,29.121,24.9Z" transform="translate(0 -0.4)" fill="#e2ad1a"/>
        </g>
      </g>
      <circle id="Ellipse_34" data-name="Ellipse 34" cx="4.5" cy="4.5" r="4.5" transform="translate(1277 533)" fill="#fff"/>
      <g id="round-error-symbol" transform="translate(1275.537 531.537)">
        <g id="error">
          <path id="Path_995" data-name="Path 995" d="M5.569,0a5.569,5.569,0,1,0,5.569,5.569A5.585,5.585,0,0,0,5.569,0Zm.557,8.353H5.012V7.239H6.125Zm0-2.227H5.012V2.784H6.125Z" fill="#e2ad1a"/>
        </g>
      </g>
    </g>
  </g>
</svg>
