<svg xmlns="http://www.w3.org/2000/svg" width="64" height="64" viewBox="0 0 64 64">
  <g id="Group_1304" data-name="Group 1304" transform="translate(-1330 -857)">
    <circle id="Ellipse_39" data-name="Ellipse 39" cx="32" cy="32" r="32" transform="translate(1330 857)" fill="rgba(48,171,89,0.2)"/>
    <g id="user_1_" data-name="user (1)" transform="translate(1325.92 872)">
      <g id="Group_1297" data-name="Group 1297" transform="translate(21.08 13.505)">
        <g id="Group_1296" data-name="Group 1296" transform="translate(0)">
          <path id="Path_1024" data-name="Path 1024" d="M23.382,209.883a9.756,9.756,0,0,1,9.745-9.744,9.489,9.489,0,0,1,6.167,2.226l1.477-1.766a11.765,11.765,0,0,0-7.644-2.762A12.06,12.06,0,0,0,21.08,209.883V215.6a1.151,1.151,0,0,0,1.151,1.151H40.569v-2.3H23.382Z" transform="translate(-21.08 -197.837)" fill="#30ab59"/>
        </g>
      </g>
      <g id="Group_1299" data-name="Group 1299" transform="translate(25.223)">
        <g id="Group_1298" data-name="Group 1298" transform="translate(0)">
          <path id="Path_1025" data-name="Path 1025" d="M89.68,0a7.9,7.9,0,1,0,7.9,7.9A7.912,7.912,0,0,0,89.68,0Zm0,13.5a5.6,5.6,0,1,1,5.6-5.6A5.608,5.608,0,0,1,89.68,13.5Z" transform="translate(-81.777)" fill="#30ab59"/>
        </g>
      </g>
      <g id="Group_1301" data-name="Group 1301" transform="translate(36.464 13.505)">
        <g id="Group_1300" data-name="Group 1300" transform="translate(0)">
          <path id="Path_1026" data-name="Path 1026" d="M262.53,201.883l-7.289-3.913a1.151,1.151,0,0,0-1.1.006l-7.1,3.913a1.15,1.15,0,0,0-.6,1.008v5.525a11.3,11.3,0,0,0,6.788,10.338l.959.422a1.15,1.15,0,0,0,.9.01l1.113-.46,0,0a11.235,11.235,0,0,0,6.921-10.385V202.9A1.151,1.151,0,0,0,262.53,201.883Zm-1.695,6.462a8.939,8.939,0,0,1-5.506,8.26l-.657.271-.512-.225a9,9,0,0,1-5.411-8.23v-4.845l5.954-3.283,6.131,3.291Z" transform="translate(-246.448 -197.833)" fill="#30ab59"/>
        </g>
      </g>
      <g id="Group_1303" data-name="Group 1303" transform="translate(40.608 21.561)">
        <g id="Group_1302" data-name="Group 1302" transform="translate(0)">
          <path id="Path_1027" data-name="Path 1027" d="M315.558,316.274a1.151,1.151,0,0,0-1.62-.161l-3.574,2.928-1.187-1.4a1.151,1.151,0,1,0-1.757,1.488l1.918,2.264a1.151,1.151,0,0,0,1.607.147l4.45-3.645A1.151,1.151,0,0,0,315.558,316.274Z" transform="translate(-307.147 -315.853)" fill="#30ab59"/>
        </g>
      </g>
    </g>
  </g>
</svg>
