<svg xmlns="http://www.w3.org/2000/svg" width="64" height="64" viewBox="0 0 64 64">
  <g id="Group_1292" data-name="Group 1292" transform="translate(-1712 -485)">
    <circle id="Ellipse_32" data-name="Ellipse 32" cx="32" cy="32" r="32" transform="translate(1712 485)" fill="rgba(149,14,140,0.2)"/>
    <g id="umbrella" transform="translate(1728 498.05)">
      <g id="Group_1287" data-name="Group 1287" transform="translate(0 2.95)">
        <g id="Group_1286" data-name="Group 1286">
          <path id="Path_1015" data-name="Path 1015" d="M16.024,2.958C16,2.95,16,2.95,15.992,2.95A15.978,15.978,0,0,0,0,18.926v.024a.8.8,0,0,0,.8.8.812.812,0,0,0,.776-.6,5.88,5.88,0,0,1,.888-1.961A3.12,3.12,0,0,1,4.6,16.325a3,3,0,0,1,2.121.856A3.075,3.075,0,0,1,7.6,19.326a.8.8,0,1,0,1.6,0,2.95,2.95,0,0,1,2.9-3h.1a3,3,0,0,1,2.121.856,3.075,3.075,0,0,1,.872,2.145v11.31a2.161,2.161,0,1,1-4.322,0V29.219a.8.8,0,1,0-1.6,0v1.417a3.762,3.762,0,1,0,7.524,0V19.326a2.95,2.95,0,0,1,2.9-3h.1a3.022,3.022,0,0,1,2.129.856,3.075,3.075,0,0,1,.872,2.145.8.8,0,1,0,1.6,0,2.95,2.95,0,0,1,2.9-3h.1a3.022,3.022,0,0,1,2.129.856,3.9,3.9,0,0,1,.632,1.169,7.2,7.2,0,0,1,.264.8.807.807,0,0,0,.976.576.8.8,0,0,0,.6-.776A15.978,15.978,0,0,0,16.024,2.958ZM27.382,14.724a4.693,4.693,0,0,0-3.25,1.313l-.032.032a4.855,4.855,0,0,0-.512.64,5.611,5.611,0,0,0-.512-.64l-.016-.016a4.67,4.67,0,0,0-6.515-.016l-.032.032a5.143,5.143,0,0,0-.424.512.709.709,0,0,0-.184,0,5.143,5.143,0,0,0-.424-.512l-.016-.016a4.67,4.67,0,0,0-6.515-.016l-.032.032a4.855,4.855,0,0,0-.512.64,5.611,5.611,0,0,0-.512-.64l-.016-.016a4.684,4.684,0,0,0-5.867-.544A14.4,14.4,0,0,1,29.975,15.5,4.671,4.671,0,0,0,27.382,14.724Z" transform="translate(0 -2.95)" fill="#950e8c" stroke="#950e8c" stroke-width="0.5"/>
        </g>
      </g>
      <g id="Group_1289" data-name="Group 1289" transform="translate(21.841 25.711)">
        <g id="Group_1288" data-name="Group 1288">
          <path id="Path_1016" data-name="Path 1016" d="M279.544,287.571a.8.8,0,0,0-1.129-.032l-2.905,2.737-1.265-1.3a.8.8,0,0,0-1.145,1.113l1.817,1.865a.8.8,0,0,0,1.121.024l3.474-3.282A.8.8,0,0,0,279.544,287.571Z" transform="translate(-272.875 -287.321)" fill="#950e8c" stroke="#950e8c" stroke-width="0.5"/>
        </g>
      </g>
      <g id="Group_1291" data-name="Group 1291" transform="translate(18.961 21.831)">
        <g id="Group_1290" data-name="Group 1290">
          <path id="Path_1017" data-name="Path 1017" d="M243.223,238.85a6.323,6.323,0,1,0,6.323,6.323A6.326,6.326,0,0,0,243.223,238.85Zm0,11.038a4.722,4.722,0,1,1,4.722-4.722A4.721,4.721,0,0,1,243.223,249.888Z" transform="translate(-236.9 -238.85)" fill="#950e8c" stroke="#950e8c" stroke-width="0.5"/>
        </g>
      </g>
    </g>
  </g>
</svg>
