<svg id="landlord" xmlns="http://www.w3.org/2000/svg" width="25.188" height="24.373" viewBox="0 0 25.188 24.373">
  <path id="Path_891" data-name="Path 891" d="M22.532,37.844V22.275L22.071,22H5.118l-.462.275V37.844H1v.813H26.188v-.813Zm-.813-3.25v.813h-.813v-.813Zm-.813-.813v-.813h.813v.813Zm.813,2.438v.813h-.813v-.813ZM17.657,22.813h4.063v4.875H17.657Zm-12.188,0H9.531v4.875H5.469Zm0,5.688h.813v.813H5.469Zm0,1.625h.813v.813H5.469Zm0,1.625h.813v.813H5.469Zm13.813,6.094v-.813a5.685,5.685,0,0,0-2.559-4.745l-.357,3.927L14.906,35l.276,2.847h-.816l-.347-3.586-.425-.353-.424.353-.347,3.586h-.816L12.282,35l-1.46,1.217-.357-3.927a5.684,5.684,0,0,0-2.558,4.744v.813H7.094v-.813a6.508,6.508,0,0,1,4.692-6.239,3.25,3.25,0,1,1,3.617,0,6.508,6.508,0,0,1,4.692,6.239v.813Z" transform="translate(-1 -14.284)" fill="#f8e0df"/>
  <path id="Path_892" data-name="Path 892" d="M30.376,45a5.7,5.7,0,0,0-1.112.111l1.112,1.3,1.112-1.3A5.7,5.7,0,0,0,30.376,45Z" transform="translate(-17.781 -27.94)" fill="#f8e0df"/>
  <path id="Path_893" data-name="Path 893" d="M14,26h2.438v3.25H14Z" transform="translate(-8.719 -16.659)" fill="#f8e0df"/>
  <path id="Path_894" data-name="Path 894" d="M33.419,47.507l1.527,1.272.249-2.74c-.125-.057-.254-.108-.383-.157Z" transform="translate(-20.248 -28.464)" fill="#f8e0df"/>
  <path id="Path_895" data-name="Path 895" d="M26.21,46.039l.249,2.74,1.527-1.272-1.392-1.624C26.464,45.931,26.336,45.983,26.21,46.039Z" transform="translate(-15.968 -28.464)" fill="#f8e0df"/>
  <path id="Path_896" data-name="Path 896" d="M52.626,6H51V8.263l1.625.969Z" transform="translate(-30.688 -4.784)" fill="#f8e0df"/>
  <path id="Path_897" data-name="Path 897" d="M28.438,38.406a2.44,2.44,0,0,0,2.438-2.438H30.09a3.171,3.171,0,0,1-1.764-.534l-.258-.171a3.156,3.156,0,0,1-2,.706H26A2.44,2.44,0,0,0,28.438,38.406Z" transform="translate(-15.843 -22.159)" fill="#f8e0df"/>
  <path id="Path_898" data-name="Path 898" d="M28.189,31.7l.8.531a2.359,2.359,0,0,0,1.313.4h.643a2.434,2.434,0,0,0-4.59,0,2.353,2.353,0,0,0,1.6-.69Z" transform="translate(-16.053 -19.628)" fill="#f8e0df"/>
  <path id="Path_899" data-name="Path 899" d="M28.718,14.067l-6.565-3.912a1.088,1.088,0,0,0-1.094,0l-6.566,3.912h5.5a2.01,2.01,0,0,1-.417-1.219,2.031,2.031,0,0,1,4.063,0,2.01,2.01,0,0,1-.417,1.219Z" transform="translate(-9.011 -7.164)" fill="#f8e0df"/>
  <ellipse id="Ellipse_10" data-name="Ellipse 10" cx="1" cy="1.5" rx="1" ry="1.5" transform="translate(11.546 3.962)" fill="#f8e0df"/>
  <path id="Path_900" data-name="Path 900" d="M44,26h2.438v3.25H44Z" transform="translate(-26.531 -16.659)" fill="#f8e0df"/>
  <path id="Path_901" data-name="Path 901" d="M4.227,11.016,13.818,5.3a1.882,1.882,0,0,1,1.926,0l9.592,5.716a.836.836,0,0,0,1.112-.285.813.813,0,0,0-.284-1.114L15.328,3.155a1.085,1.085,0,0,0-1.094,0L3.4,9.617a.814.814,0,0,0-.286,1.114.836.836,0,0,0,1.114.284Z" transform="translate(-2.187 -3.007)" fill="#f8e0df"/>
</svg>
