<svg xmlns="http://www.w3.org/2000/svg" width="189.672" height="53.585" viewBox="0 0 189.672 53.585">
  <g id="Group_531" data-name="Group 531" transform="translate(-53.094 -21.243)">
    <g id="logo" transform="translate(53.094 21.243)">
      <path id="Path_1" data-name="Path 1" d="M141.6,13.2" transform="translate(48.071 4.481)" fill="#e50046" fill-rule="evenodd"/>
      <path id="Path_2" data-name="Path 2" d="M14.6,44.25H2.679V18.8H0v28H14.6Z" transform="translate(0 6.382)" fill="#9d9d9c" fill-rule="evenodd"/>
      <path id="Path_3" data-name="Path 3" d="M26.469,27.046a7.411,7.411,0,0,0-2.545-1.875,9.486,9.486,0,0,0-3.483-.67,8.947,8.947,0,0,0-4.015.8,7.38,7.38,0,0,0-2.679,2.277,11.122,11.122,0,0,0-1.608,3.349,13.243,13.243,0,0,0-.536,4.018,13.561,13.561,0,0,0,.536,4.152,9.355,9.355,0,0,0,1.741,3.214,7.49,7.49,0,0,0,3.078,2.145,10.857,10.857,0,0,0,4.421.8A26.1,26.1,0,0,0,24.728,45a7.862,7.862,0,0,0,2.679-.8c0-.4-.134-.67-.134-1.071-.134-.4-.134-.8-.268-1.071a16.2,16.2,0,0,1-2.413.67,16.49,16.49,0,0,1-2.685.266,7.558,7.558,0,0,1-5.483-1.875C15.219,39.9,14.55,37.9,14.55,35.217h14.2V33.342a10.266,10.266,0,0,0-.536-3.619,11.49,11.49,0,0,0-1.74-2.677ZM14.413,33.077a7.918,7.918,0,0,1,1.875-4.688,5.655,5.655,0,0,1,4.287-1.608,5.1,5.1,0,0,1,2.545.536,6.011,6.011,0,0,1,1.741,1.474A4.661,4.661,0,0,1,25.8,30.8a7.417,7.417,0,0,1,.268,2.413H14.413Z" transform="translate(3.938 8.317)" fill="#9d9d9c" fill-rule="evenodd"/>
      <path id="Path_4" data-name="Path 4" d="M34.04,44.411a2.949,2.949,0,0,1-1.071-.134,1.216,1.216,0,0,1-.938-.4,2.4,2.4,0,0,1-.67-.938,4.815,4.815,0,0,1-.268-1.474V28.6h5.358V26.462H31.093V20.3H30.96l-2.413,2.413v3.751H25.2v2.143h3.349V41.6a4.9,4.9,0,0,0,1.339,3.884,5.362,5.362,0,0,0,3.619,1.206,11.721,11.721,0,0,0,3.208-.4c-.134-.8-.268-1.474-.4-2.143a9.619,9.619,0,0,1-2.273.263Z" transform="translate(8.555 6.892)" fill="#9d9d9c" fill-rule="evenodd"/>
      <path id="Path_5" data-name="Path 5" d="M99.706,12.2,98.5,15.683c27.593-1.875,59.741,5.492,52.775,19.557C161.054,21.844,141.364,12.334,99.706,12.2Z" transform="translate(33.438 4.141)" fill="#9d9d9c" fill-rule="evenodd"/>
      <path id="Path_6" data-name="Path 6" d="M125.8,10.2h5.492v7.635l-5.492-1.6" transform="translate(42.706 3.463)" fill="#e50046" fill-rule="evenodd"/>
      <path id="Path_7" data-name="Path 7" d="M45.676,19,36.3,46.727h4.825L43.4,39.359h9.776l2.277,7.367h5.09L50.766,19ZM44.47,35.476l3.751-11.788L51.84,35.476Z" transform="translate(12.323 6.45)" fill="#e50046" fill-rule="evenodd"/>
      <rect id="Rectangle_2" data-name="Rectangle 2" width="4.688" height="28.933" transform="translate(75.279 24.245)" fill="#e50046"/>
      <rect id="Rectangle_3" data-name="Rectangle 3" width="4.688" height="28.933" transform="translate(84.387 24.245)" fill="#e50046"/>
      <path id="Path_8" data-name="Path 8" d="M71.913,18.5a2.91,2.91,0,0,0-2.143.67,2.961,2.961,0,0,0,0,3.751,3.145,3.145,0,0,0,2.143.67,2.91,2.91,0,0,0,2.143-.67,2.961,2.961,0,0,0,0-3.751A2.911,2.911,0,0,0,71.913,18.5Z" transform="translate(23.458 6.279)" fill="#e50046" fill-rule="evenodd"/>
      <rect id="Rectangle_4" data-name="Rectangle 4" width="4.688" height="20.227" transform="translate(92.96 32.951)" fill="#e50046"/>
      <path id="Path_9" data-name="Path 9" d="M90.336,26.041A6.857,6.857,0,0,0,87.523,24.7a14.94,14.94,0,0,0-3.619-.4,26.151,26.151,0,0,0-3.08.268c-1.071.134-2.009.4-2.813.536l-.536,3.619a18.972,18.972,0,0,1,2.679-.536,8.678,8.678,0,0,1,2.686-.269,6.275,6.275,0,0,1,4.018,1.071A4.536,4.536,0,0,1,88.2,32.609v1.341a4.742,4.742,0,0,0-2.143-1.206,9.205,9.205,0,0,0-2.947-.4,20.3,20.3,0,0,0-3.08.268,6.619,6.619,0,0,0-2.413,1.071,4.379,4.379,0,0,0-1.474,2.009,6.446,6.446,0,0,0-.536,2.947v.4a5.539,5.539,0,0,0,.536,2.813,3.993,3.993,0,0,0,1.339,1.875A6.446,6.446,0,0,0,79.621,44.8a9.129,9.129,0,0,0,2.813.268,10.265,10.265,0,0,0,3.619-.536,5.4,5.4,0,0,0,2.413-1.875l.4,2.009h4.018v-13a9.485,9.485,0,0,0-.67-3.483,9.378,9.378,0,0,0-1.88-2.143ZM88.192,38.5a2.861,2.861,0,0,1-1.071,2.277,5.154,5.154,0,0,1-3.214.8,5.629,5.629,0,0,1-2.947-.67,2.348,2.348,0,0,1-.938-2.143V38.5a2.632,2.632,0,0,1,.8-2.143,3.785,3.785,0,0,1,2.679-.67h.67a5.629,5.629,0,0,1,2.947.67,2.114,2.114,0,0,1,.938,2.009V38.5Z" transform="translate(25.664 8.25)" fill="#e50046" fill-rule="evenodd"/>
      <path id="Path_10" data-name="Path 10" d="M107.072,25.941A7.841,7.841,0,0,0,104.8,24.6a10.445,10.445,0,0,0-2.947-.4,8.96,8.96,0,0,0-3.483.67,5.36,5.36,0,0,0-2.545,2.009l-.268-2.143H91.4V44.962h4.688V33.175a6.112,6.112,0,0,1,1.071-3.884,4.259,4.259,0,0,1,3.349-1.206,3.743,3.743,0,0,1,2.947,1.071,5.7,5.7,0,0,1,.938,3.483V44.962h4.688V31.3a7.058,7.058,0,0,0-.536-3.08,9.541,9.541,0,0,0-1.473-2.278Z" transform="translate(31.028 8.215)" fill="#e50046" fill-rule="evenodd"/>
      <path id="Path_11" data-name="Path 11" d="M112.494,29.29c.8-.938,2.277-1.339,4.287-1.339a8.87,8.87,0,0,1,2.009.134c.67.134,1.206.268,1.741.4l.8-3.483a15.572,15.572,0,0,0-2.413-.536,19.983,19.983,0,0,0-2.813-.268,13.083,13.083,0,0,0-4.287.67,7.43,7.43,0,0,0-2.947,1.875,8.188,8.188,0,0,0-1.741,2.947,11.854,11.854,0,0,0-.536,3.884v2.009a17.31,17.31,0,0,0,.4,3.884,6.8,6.8,0,0,0,1.474,2.947,7.6,7.6,0,0,0,2.813,2.009,13.955,13.955,0,0,0,4.421.67,15.382,15.382,0,0,0,2.545-.134,21.761,21.761,0,0,0,2.545-.536l.536-3.483a10.34,10.34,0,0,1-2.009.268,11.523,11.523,0,0,1-2.143.134c-2.143,0-3.619-.4-4.554-1.339s-1.339-2.545-1.339-4.688V33.71A6.7,6.7,0,0,1,112.5,29.29Z" transform="translate(36.188 8.215)" fill="#e50046" fill-rule="evenodd"/>
      <path id="Path_12" data-name="Path 12" d="M134.673,26.745a7.411,7.411,0,0,0-2.545-1.875,11.428,11.428,0,0,0-4.018-.67,12.842,12.842,0,0,0-4.152.67,5.466,5.466,0,0,0-2.813,2.009,6.21,6.21,0,0,0-1.608,3.08A12.691,12.691,0,0,0,119,33.978v1.608a13.019,13.019,0,0,0,.536,4.152,6.21,6.21,0,0,0,1.608,3.081,7.43,7.43,0,0,0,2.947,1.875,14.855,14.855,0,0,0,4.554.67h1.741c.536,0,1.206-.134,1.741-.134.536-.134,1.071-.134,1.608-.268a6.228,6.228,0,0,0,1.206-.4l.67-3.349a11.807,11.807,0,0,1-2.813.4,15.381,15.381,0,0,1-2.545.134,18.81,18.81,0,0,1-3.081-.268,4.661,4.661,0,0,1-2.009-.938,3.416,3.416,0,0,1-1.071-1.608,7.25,7.25,0,0,1-.4-2.545h10.582a2.611,2.611,0,0,0,1.071-.134,1.023,1.023,0,0,0,.67-.268,2.927,2.927,0,0,0,.4-.67c0-.268.134-.67.134-1.206V32.505a12.162,12.162,0,0,0-.4-3.08A10.468,10.468,0,0,0,134.673,26.745Zm-2.679,6.3h-8.439a6.275,6.275,0,0,1,1.071-4.018,3.956,3.956,0,0,1,3.214-1.206,3.867,3.867,0,0,1,3.081,1.071,4.992,4.992,0,0,1,.938,3.349v.8Z" transform="translate(40.398 8.215)" fill="#e50046" fill-rule="evenodd"/>
      <path id="Path_13" data-name="Path 13" d="M107.8,17.7l-.8,2.545c19.69-1.339,42.729,4.018,37.773,13.927C151.743,24.665,137.674,17.834,107.8,17.7Z" transform="translate(36.324 6.009)" fill="#e50046" fill-rule="evenodd"/>
      <path id="Path_14" data-name="Path 14" d="M130.565,0,109.4,16.744l3.483.268L130.565,2.679l12.993,10.309V24.111l2.277,1.474V14.868l3.483,2.813h3.214Z" transform="translate(37.139)" fill="#e50046" fill-rule="evenodd"/>
    </g>
  </g>
</svg>
