<svg xmlns="http://www.w3.org/2000/svg" width="90.508" height="90.51" viewBox="0 0 90.508 90.51">
  <g id="Group_1278" data-name="Group 1278" transform="translate(-1428 -637)">
    <rect id="Rectangle_841" data-name="Rectangle 841" width="64" height="64" rx="5" transform="translate(1473.255 637) rotate(45)" fill="rgba(255,112,166,0.2)"/>
    <g id="link" transform="translate(1456.961 665)">
      <g id="Group_1254" data-name="Group 1254" transform="translate(0.039 10.646)">
        <g id="Group_1253" data-name="Group 1253" transform="translate(0)">
          <path id="Path_1000" data-name="Path 1000" d="M20.242,166.876a7.513,7.513,0,0,0-1.3-1.043,7.727,7.727,0,0,0-9.63,1.043L2.3,173.9a7.726,7.726,0,0,0,10.921,10.932l5.794-5.794a.552.552,0,0,0-.392-.944H18.4a9.289,9.289,0,0,1-3.532-.684.552.552,0,0,0-.6.121L10.1,181.7a3.313,3.313,0,0,1-4.685-4.685l7.047-7.041a3.311,3.311,0,0,1,4.68,0,2.263,2.263,0,0,0,3.1,0,2.186,2.186,0,0,0,0-3.1Z" transform="translate(-0.039 -164.614)" fill="#ff70a6"/>
        </g>
      </g>
      <g id="Group_1256" data-name="Group 1256" transform="translate(12.291 0)">
        <g id="Group_1255" data-name="Group 1255" transform="translate(0 0)">
          <path id="Path_1001" data-name="Path 1001" d="M208.1,2.263a7.726,7.726,0,0,0-10.926,0l-5.789,5.783a.554.554,0,0,0,.4.944h.2a9.271,9.271,0,0,1,3.526.69.552.552,0,0,0,.6-.121l4.155-4.15a3.313,3.313,0,0,1,4.685,4.685l-5.176,5.171-.044.05-1.81,1.8a3.311,3.311,0,0,1-4.68,0,2.263,2.263,0,0,0-3.1,0,2.2,2.2,0,0,0,0,3.112,7.66,7.66,0,0,0,2.207,1.545c.116.055.232.1.348.149s.237.088.353.132.237.083.353.116l.326.088c.221.055.441.1.668.138a7.68,7.68,0,0,0,.822.077h.419l.331-.039c.121-.005.248-.033.392-.033h.188l.381-.055.177-.033.32-.066h.061a7.725,7.725,0,0,0,3.581-2.031L208.1,13.19A7.726,7.726,0,0,0,208.1,2.263Z" transform="translate(-189.502 0)" fill="#ff70a6"/>
        </g>
      </g>
    </g>
  </g>
</svg>
