<svg xmlns="http://www.w3.org/2000/svg" width="83.343" height="58.011" viewBox="0 0 83.343 58.011">
  <g id="Group_1185" data-name="Group 1185" transform="translate(-1726.47 -70.894)">
    <path id="Path_75" data-name="Path 75" d="M125.8,10.2h7.928V21.222L125.8,18.9" transform="translate(1653.461 80.418)" fill="#cf3229" fill-rule="evenodd"/>
    <g id="Group_9" data-name="Group 9" transform="translate(1726.47 70.894)">
      <path id="Path_74" data-name="Path 74" d="M100.24,12.2,98.5,17.228c39.834-2.707,86.243,7.928,76.188,28.232C188.8,26.123,160.379,12.393,100.24,12.2Z" transform="translate(-98.5 11.391)" fill="#9d9d9c" fill-rule="evenodd"/>
      <path id="Path_82" data-name="Path 82" d="M108.16,17.7,107,21.374c28.426-1.934,61.685,5.8,54.531,20.111C171.586,27.755,151.282,17.893,108.16,17.7Z" transform="translate(-90.564 16.527)" fill="#cf3229" fill-rule="evenodd"/>
      <path id="Path_83" data-name="Path 83" d="M139.953,0,109.4,24.171l5.028.387L139.953,3.867l18.757,14.89v16.05L162,36.934V21.464l5.028,4.061h4.641Z" transform="translate(-88.322)" fill="#cf3229" fill-rule="evenodd"/>
    </g>
  </g>
</svg>
