<svg xmlns="http://www.w3.org/2000/svg" width="90.508" height="90.51" viewBox="0 0 90.508 90.51">
  <g id="Group_1276" data-name="Group 1276" transform="translate(-1074 -635.532)">
    <rect id="Rectangle_841" data-name="Rectangle 841" width="64" height="64" rx="5" transform="translate(1119.255 635.532) rotate(45)" fill="rgba(41,141,207,0.2)"/>
    <g id="add-house" transform="translate(1100 655.849)">
      <g id="Group_1251" data-name="Group 1251" transform="translate(0 7.151)">
        <path id="Path_997" data-name="Path 997" d="M45.749,25,37.026,16.28V10.528a1.3,1.3,0,0,0-2.6,0v3.158L28.276,7.531a1.3,1.3,0,0,0-1.834,0L18.39,15.583a1.3,1.3,0,0,0,1.834,1.835l7.134-7.134L43.913,26.838A1.3,1.3,0,0,0,45.749,25Z" transform="translate(-6.64 -7.151)" fill="#298dcf"/>
        <path id="Path_998" data-name="Path 998" d="M43.873,29.532,30.112,15.772a1.295,1.295,0,0,0-1.834,0l-5.287,5.287a11.738,11.738,0,0,1,6.438,9.247A2.325,2.325,0,0,1,31.3,32.581v4.932a3.143,3.143,0,0,0,3.138,3.137h6.716a3.141,3.141,0,0,0,3.137-3.137V30.8a3.019,3.019,0,0,0-.058-.595A1.294,1.294,0,0,0,43.873,29.532Z" transform="translate(-8.477 -10.189)" fill="#298dcf"/>
        <path id="Path_999" data-name="Path 999" d="M9.826,24.273A9.825,9.825,0,1,0,19.651,34.1,9.826,9.826,0,0,0,9.826,24.273Zm3.219,11.449h-1.6v1.595a1.622,1.622,0,0,1-3.244,0V35.722h-1.6a1.622,1.622,0,0,1,0-3.244H8.2V30.883a1.622,1.622,0,0,1,3.244,0v1.595h1.6a1.622,1.622,0,0,1,0,3.244Z" transform="translate(0 -13.464)" fill="#298dcf"/>
      </g>
    </g>
  </g>
</svg>
