<svg xmlns="http://www.w3.org/2000/svg" width="64" height="64" viewBox="0 0 64 64">
  <g id="Group_1209" data-name="Group 1209" transform="translate(-942 -495)">
    <circle id="Ellipse_29" data-name="Ellipse 29" cx="32" cy="32" r="32" transform="translate(942 495)" fill="rgba(77,121,246,0.2)"/>
    <g id="hand-shake_1_" data-name="hand-shake (1)" transform="translate(955 419.997)">
      <g id="Group_1194" data-name="Group 1194" transform="translate(5.498 97.672)">
        <g id="Group_1193" data-name="Group 1193">
          <path id="Path_966" data-name="Path 966" d="M98.922,133.151c-.74-1.543-3.388-3.685-5.946-5.754-1.427-1.153-2.775-2.244-3.635-3.1a.785.785,0,0,0-.822-.184c-.53.192-.856.339-1.114.454a2.6,2.6,0,0,1-1.054.289.785.785,0,0,0-.575.344c-1.111,1.661-2.261,1.52-3.03,1.262-.245-.082-.289-.187-.313-.288-.165-.69.663-2.3,1.736-3.369,2.554-2.555,3.87-3.195,6.652-1.952,3.155,1.411,6.317,2.516,6.348,2.527a.786.786,0,1,0,.517-1.485c-.031-.011-3.13-1.094-6.223-2.478-3.6-1.611-5.58-.55-8.4,2.275-1.075,1.075-2.535,3.25-2.158,4.845a1.943,1.943,0,0,0,1.35,1.416,3.932,3.932,0,0,0,4.615-1.581,3.966,3.966,0,0,0,1.18-.374c.148-.066.321-.143.55-.236.9.844,2.112,1.826,3.389,2.858,2.31,1.868,4.929,3.987,5.519,5.212a.921.921,0,0,1-.234,1.18.866.866,0,0,1-.968.19.785.785,0,0,0-1.227.731.949.949,0,0,1-.6.885,1.206,1.206,0,0,1-1.224.028.785.785,0,0,0-1.318.5,1.493,1.493,0,0,1-.927,1.2.828.828,0,0,1-.9-.14.8.8,0,0,0-.718-.182.785.785,0,0,0-.552.495c-.03.079-.1.267-.833.267a4.524,4.524,0,0,1-1.925-.658c-.552-.363-4.01-2.943-7-5.445-.42-.354-1.146-1.111-1.787-1.78-.569-.594-1.089-1.133-1.356-1.359a.786.786,0,1,0-1.015,1.2c.244.206.715.7,1.235,1.246.7.732,1.425,1.49,1.912,1.9,2.926,2.45,6.443,5.094,7.144,5.555A6.028,6.028,0,0,0,88,140.56a2.7,2.7,0,0,0,1.784-.525,2.446,2.446,0,0,0,1.787-.019,3.1,3.1,0,0,0,1.636-1.51,3.039,3.039,0,0,0,1.972-.284,2.666,2.666,0,0,0,1.312-1.37,2.57,2.57,0,0,0,1.8-.646A2.5,2.5,0,0,0,98.922,133.151Z" transform="translate(-74.642 -118.658)" fill="#4d79f6" stroke="#4d79f6" stroke-width="0.2"/>
        </g>
      </g>
      <g id="Group_1196" data-name="Group 1196" transform="translate(7.857 99.146)">
        <g id="Group_1195" data-name="Group 1195" transform="translate(0 0)">
          <path id="Path_967" data-name="Path 967" d="M114.523,138.663h-7.071a.786.786,0,1,0,0,1.571h7.071a.786.786,0,1,0,0-1.571Z" transform="translate(-106.666 -138.663)" fill="#4d79f6" stroke="#4d79f6" stroke-width="0.2"/>
        </g>
      </g>
      <g id="Group_1198" data-name="Group 1198" transform="translate(28.345 110.144)">
        <g id="Group_1197" data-name="Group 1197">
          <path id="Path_968" data-name="Path 968" d="M388.546,288.326a.784.784,0,0,0-1.091-.214l-2.3,1.543a.786.786,0,0,0,.877,1.3l2.3-1.543A.786.786,0,0,0,388.546,288.326Z" transform="translate(-384.811 -287.977)" fill="#4d79f6" stroke="#4d79f6" stroke-width="0.2"/>
        </g>
      </g>
      <g id="Group_1200" data-name="Group 1200" transform="translate(21.215 109.359)">
        <g id="Group_1199" data-name="Group 1199">
          <path id="Path_969" data-name="Path 969" d="M294,282.2c-.562-.443-3.078-3.019-4.634-4.64a.786.786,0,1,0-1.135,1.087c.4.421,3.966,4.134,4.794,4.788a.782.782,0,0,0,.486.168.794.794,0,0,0,.619-.3A.785.785,0,0,0,294,282.2Z" transform="translate(-288.016 -277.317)" fill="#4d79f6" stroke="#4d79f6" stroke-width="0.2"/>
        </g>
      </g>
      <g id="Group_1202" data-name="Group 1202" transform="translate(18.857 111.717)">
        <g id="Group_1201" data-name="Group 1201">
          <path id="Path_970" data-name="Path 970" d="M261.211,313.438c-.941-.753-3.306-3.265-3.84-3.847a.786.786,0,0,0-1.158,1.064c.028.03,2.851,3.077,4.016,4.01a.786.786,0,0,0,.982-1.227Z" transform="translate(-256.005 -309.337)" fill="#4d79f6" stroke="#4d79f6" stroke-width="0.2"/>
        </g>
      </g>
      <g id="Group_1204" data-name="Group 1204" transform="translate(15.715 113.287)">
        <g id="Group_1203" data-name="Group 1203">
          <path id="Path_971" data-name="Path 971" d="M218.564,334.758c-1.12-.944-3.413-3.385-3.861-3.864a.786.786,0,1,0-1.149,1.073c.644.69,2.838,3.016,4,3.993a.786.786,0,0,0,1.014-1.2Z" transform="translate(-213.343 -330.644)" fill="#4d79f6" stroke="#4d79f6" stroke-width="0.2"/>
        </g>
      </g>
      <g id="Group_1206" data-name="Group 1206" transform="translate(0 96.003)">
        <g id="Group_1205" data-name="Group 1205">
          <path id="Path_972" data-name="Path 972" d="M9.183,97.79C7.836,96.514,2.451,96.1.833,96A.785.785,0,0,0,0,96.789v14.143a.786.786,0,0,0,.786.786H5.5a.785.785,0,0,0,.746-.542c.115-.352,2.822-8.661,3.179-12.747A.782.782,0,0,0,9.183,97.79ZM4.926,110.146H1.571V97.631a23.871,23.871,0,0,1,6.24,1.114A82.445,82.445,0,0,1,4.926,110.146Z" transform="translate(0 -96.003)" fill="#4d79f6" stroke="#4d79f6" stroke-width="0.2"/>
        </g>
      </g>
      <g id="Group_1208" data-name="Group 1208" transform="translate(26.742 97.574)">
        <g id="Group_1207" data-name="Group 1207" transform="translate(0 0)">
          <path id="Path_973" data-name="Path 973" d="M373.232,117.33c-6.169,0-9.592,1.579-9.735,1.645a.782.782,0,0,0-.42.489.792.792,0,0,0,.086.638c.971,1.564,4.012,10.247,4.6,12.365a.786.786,0,0,0,.757.577h4.714a.786.786,0,0,0,.786-.786V118.116A.785.785,0,0,0,373.232,117.33Zm-.786,14.143h-3.341c-.745-2.426-2.945-8.753-4.172-11.367a25.59,25.59,0,0,1,7.513-1.194Z" transform="translate(-363.046 -117.33)" fill="#4d79f6" stroke="#4d79f6" stroke-width="0.2"/>
        </g>
      </g>
    </g>
  </g>
</svg>
