<svg xmlns="http://www.w3.org/2000/svg" width="64" height="64" viewBox="0 0 64 64">
  <g id="Group_1230" data-name="Group 1230" transform="translate(-1328 -513)">
    <circle id="Ellipse_29" data-name="Ellipse 29" cx="32" cy="32" r="32" transform="translate(1328 513)" fill="rgba(153,72,214,0.2)"/>
    <g id="star" transform="translate(1343 515.989)">
      <path id="Path_996" data-name="Path 996" d="M35.561,23.86a.993.993,0,0,0-.8-.672L23.655,21.609l-5-10.049a.991.991,0,0,0-.884-.548h0a.984.984,0,0,0-.884.555L11.954,21.645.844,23.3a.993.993,0,0,0-.8.672A.976.976,0,0,0,.3,24.978l8.061,7.813L6.5,43.856a.992.992,0,0,0,.972,1.155.938.938,0,0,0,.46-.117l9.918-5.255,9.947,5.2a1.009,1.009,0,0,0,.453.11h0a.992.992,0,0,0,.987-.987.771.771,0,0,0-.029-.227l-1.922-11,8.01-7.857A.966.966,0,0,0,35.561,23.86ZM25.548,31.687a.975.975,0,0,0-.278.877l1.674,9.6L18.3,37.651a1,1,0,0,0-.921,0l-8.61,4.561L10.39,32.6a.986.986,0,0,0-.285-.87L3.117,24.949l9.64-1.433a.979.979,0,0,0,.738-.541l4.283-8.748,4.341,8.727a1,1,0,0,0,.745.541l9.647,1.374Z" transform="translate(0)" fill="#9948d6" stroke="#9948d6" stroke-width="0.7"/>
    </g>
  </g>
</svg>
