<svg xmlns="http://www.w3.org/2000/svg" width="64" height="64" viewBox="0 0 64 64">
  <g id="Group_1275" data-name="Group 1275" transform="translate(-1442 -527)">
    <circle id="Ellipse_32" data-name="Ellipse 32" cx="32" cy="32" r="32" transform="translate(1442 527)" fill="rgba(209,115,8,0.2)"/>
    <path id="pros-and-cons" d="M21.081,7.559,19.909,8.731,21.081,9.9a1.313,1.313,0,1,1-1.857,1.856l-1.172-1.172L16.88,11.76A1.313,1.313,0,1,1,15.023,9.9L16.2,8.731,15.023,7.559A1.313,1.313,0,0,1,16.88,5.7l1.172,1.172L19.224,5.7a1.313,1.313,0,0,1,1.857,1.856Zm-8.8-1.332a1.313,1.313,0,0,0-1.857,0l-2.4,2.4L7.047,7.62A1.313,1.313,0,1,0,5.162,9.448l1.909,1.969a1.312,1.312,0,0,0,.933.4h.01a1.312,1.312,0,0,0,.929-.385l3.343-3.348a1.313,1.313,0,0,0,0-1.856Zm9.181,10.386A1.313,1.313,0,0,0,20.153,15.3h-4.2a1.313,1.313,0,1,0,0,2.626h4.2A1.313,1.313,0,0,0,21.465,16.612ZM10.766,15.3h-4.2a1.313,1.313,0,1,0,0,2.626h4.2a1.313,1.313,0,0,0,0-2.626Zm5.186,4.858a1.313,1.313,0,0,0,0,2.626H18.84a1.313,1.313,0,0,0,0-2.626Zm-5.186,0h-4.2a1.313,1.313,0,1,0,0,2.626h4.2a1.313,1.313,0,0,0,0-2.626Zm0,4.8h-4.2a1.313,1.313,0,1,0,0,2.626h4.2a1.313,1.313,0,0,0,0-2.626Zm14.565-1.838a1.313,1.313,0,0,0,1.313-1.313V5.252A5.257,5.257,0,0,0,21.392,0H5.251A5.257,5.257,0,0,0,0,5.252V28.358A5.257,5.257,0,0,0,5.251,33.61H21.393a5.257,5.257,0,0,0,5.251-5.251,1.313,1.313,0,0,0-2.626,0,2.629,2.629,0,0,1-2.626,2.626H5.251a2.629,2.629,0,0,1-2.626-2.626V5.252A2.629,2.629,0,0,1,5.251,2.626H21.393a2.629,2.629,0,0,1,2.626,2.626V21.794a1.313,1.313,0,0,0,1.313,1.313Zm0,0" transform="translate(1461 542)" fill="#d17308"/>
  </g>
</svg>
