<svg xmlns="http://www.w3.org/2000/svg" width="90.508" height="90.51" viewBox="0 0 90.508 90.51">
  <g id="Group_1277" data-name="Group 1277" transform="translate(-1071 -744)">
    <rect id="Rectangle_841" data-name="Rectangle 841" width="64" height="64" rx="5" transform="translate(1116.255 744) rotate(45)" fill="rgba(117,81,233,0.2)"/>
    <g id="refresh" transform="translate(1101 769)">
      <g id="Group_1259" data-name="Group 1259" transform="translate(0 0)">
        <path id="Path_1002" data-name="Path 1002" d="M85.637,18.6A15.267,15.267,0,0,1,70.663,35.626v4.1a.294.294,0,0,1-.472.212l-8.444-6.2a.26.26,0,0,1,0-.415l8.436-6.2a.293.293,0,0,1,.472.212v4.1a11.054,11.054,0,0,0,10-6.775A10.918,10.918,0,0,0,79.1,13.518a2.108,2.108,0,1,1,3.314-2.606A15.057,15.057,0,0,1,85.637,18.6ZM61.258,26.482A10.918,10.918,0,0,1,59.7,15.35a11.041,11.041,0,0,1,10-6.775v4.1a.294.294,0,0,0,.472.212l8.444-6.2a.26.26,0,0,0,0-.415L70.182.058A.293.293,0,0,0,69.71.27v4.1A15.267,15.267,0,0,0,54.736,21.4a14.978,14.978,0,0,0,3.216,7.687,2.1,2.1,0,1,0,3.306-2.606Z" transform="translate(-54.637 0)" fill="#7551e9"/>
      </g>
    </g>
  </g>
</svg>
