<svg xmlns="http://www.w3.org/2000/svg" width="64" height="64" viewBox="0 0 64 64">
  <g id="Group_1241" data-name="Group 1241" transform="translate(-1313 -698)">
    <circle id="Ellipse_29" data-name="Ellipse 29" cx="32" cy="32" r="32" transform="translate(1313 698)" fill="rgba(82,92,104,0.2)"/>
    <g id="Group_1240" data-name="Group 1240" transform="translate(0 -1)">
      <path id="pound-sterling_1_" data-name="pound-sterling (1)" d="M76.555,8.516V7.664a7.664,7.664,0,1,0-15.328,0v5.961H56.118v3.406h4.909A18.51,18.51,0,0,1,58.107,24.6a1.7,1.7,0,0,0,1.417,2.648H74.852V23.844h-12.4a21.856,21.856,0,0,0,2-6.812h5.292V13.625H64.634V7.664a4.258,4.258,0,0,1,8.516,0v.852Z" transform="translate(1275.882 715)" fill="#525c68"/>
      <circle id="Ellipse_35" data-name="Ellipse 35" cx="5.5" cy="5.5" r="5.5" transform="translate(1346 734)" fill="#fff"/>
      <g id="surface1" transform="translate(1343.944 731.125)">
        <path id="Path_992" data-name="Path 992" d="M125.2,158.457a4.754,4.754,0,1,0,4.754,4.754A4.76,4.76,0,0,0,125.2,158.457Zm2.823,3.859-3.406,3.406a.732.732,0,0,1-1.035,0l-1.3-1.3a.732.732,0,1,1,1.035-1.035l.784.784,2.889-2.888a.732.732,0,0,1,1.035,1.035Zm0,0" transform="translate(-117.538 -154.23)" fill="#525c68"/>
        <path id="Path_993" data-name="Path 993" d="M15.191,4.845V4.831c-.008-.172-.013-.353-.016-.555a1.893,1.893,0,0,0-1.782-1.854,7.345,7.345,0,0,1-5-2.107L8.381.3A1.143,1.143,0,0,0,6.828.3L6.816.314a7.346,7.346,0,0,1-5,2.107A1.893,1.893,0,0,0,.035,4.276c0,.2-.008.382-.016.555v.032A19.355,19.355,0,0,0,.8,11.928a8.994,8.994,0,0,0,2.158,3.361,11.287,11.287,0,0,0,4.222,2.5,1.308,1.308,0,0,0,.173.047,1.278,1.278,0,0,0,.5,0,1.311,1.311,0,0,0,.174-.047,11.294,11.294,0,0,0,4.218-2.5A9.006,9.006,0,0,0,14.4,11.926,19.384,19.384,0,0,0,15.191,4.845ZM7.6,13.38a4.451,4.451,0,1,1,4.451-4.451A4.456,4.456,0,0,1,7.6,13.38Zm0,0" transform="translate(0 0)" fill="#525c68"/>
      </g>
    </g>
  </g>
</svg>
