<svg xmlns="http://www.w3.org/2000/svg" width="64" height="64" viewBox="0 0 64 64">
  <g id="Group_1279" data-name="Group 1279" transform="translate(-1442 -428)">
    <g id="Group_1228" data-name="Group 1228" transform="translate(305 -149)">
      <circle id="Ellipse_32" data-name="Ellipse 32" cx="32" cy="32" r="32" transform="translate(1137 577)" fill="rgba(0,176,255,0.2)"/>
      <g id="Group_1223" data-name="Group 1223" transform="translate(1 1)">
        <g id="wall-clock" transform="translate(1153 593)">
          <g id="Group_1221" data-name="Group 1221">
            <g id="Group_1220" data-name="Group 1220">
              <path id="Path_987" data-name="Path 987" d="M14.669,0A14.669,14.669,0,1,0,29.339,14.669,14.686,14.686,0,0,0,14.669,0Zm6.169,24.467-.632-1.087a.411.411,0,0,0-.354-.2.4.4,0,0,0-.2.056.409.409,0,0,0-.148.559l.633,1.089a11.5,11.5,0,0,1-4.691,1.346V24.689a.772.772,0,1,0-1.544,0v1.536a11.5,11.5,0,0,1-4.629-1.313L9.9,23.819a.409.409,0,0,0-.354-.612.411.411,0,0,0-.355.206L8.56,24.5a11.675,11.675,0,0,1-3.509-3.39l1.327-.766a.772.772,0,1,0-.772-1.337l-1.329.767A11.5,11.5,0,0,1,3.1,15.114l1.261,0a.409.409,0,0,0,0-.817l-1.262,0A11.5,11.5,0,0,1,4.278,9.562l1.329.767a.772.772,0,0,0,.772-1.337L5.051,8.226A11.672,11.672,0,0,1,8.5,4.873L9.133,5.96a.4.4,0,0,0,.149.149.413.413,0,0,0,.409,0,.409.409,0,0,0,.148-.559L9.206,4.461A11.5,11.5,0,0,1,13.9,3.115V4.651a.772.772,0,1,0,1.544,0V3.115A11.5,11.5,0,0,1,20.07,4.428L19.444,5.52a.409.409,0,0,0,.151.558.4.4,0,0,0,.2.054.41.41,0,0,0,.355-.205l.626-1.091a11.673,11.673,0,0,1,3.509,3.39l-1.327.766a.772.772,0,1,0,.772,1.337l1.329-.767a11.5,11.5,0,0,1,1.18,4.664l-1.261,0a.408.408,0,0,0-.407.41.408.408,0,0,0,.409.407h0l1.261,0a11.5,11.5,0,0,1-1.183,4.735l-1.329-.767a.772.772,0,0,0-.772,1.337l1.327.766A11.678,11.678,0,0,1,20.838,24.467Z" fill="#00b0ff"/>
              <path id="Path_988" data-name="Path 988" d="M110.286,134.317l-4.952,2.748a1.62,1.62,0,0,0-1.508,0l-4.952-2.748a.97.97,0,1,0-.941,1.7l5.053,2.8a1.625,1.625,0,0,0,3.189,0l5.053-2.8a.97.97,0,1,0-.94-1.7Z" transform="translate(-89.911 -123.834)" fill="#00b0ff"/>
            </g>
          </g>
        </g>
        <g id="Group_1222" data-name="Group 1222" transform="translate(1168.314 609.215)">
          <g id="Ellipse_31" data-name="Ellipse 31" transform="translate(-0.314 -0.215)" fill="#fff" stroke="#00b0ff" stroke-width="2">
            <circle cx="8.5" cy="8.5" r="8.5" stroke="none"/>
            <circle cx="8.5" cy="8.5" r="7.5" fill="none"/>
          </g>
          <path id="pound-sterling_1_" data-name="pound-sterling (1)" d="M62.342,2.593V2.334a2.334,2.334,0,1,0-4.668,0V4.149H56.118V5.186h1.495a5.637,5.637,0,0,1-.889,2.306.519.519,0,0,0,.432.806h4.668V7.261H58.048a6.656,6.656,0,0,0,.608-2.075h1.611V4.149H58.711V2.334a1.3,1.3,0,0,1,2.593,0v.259Z" transform="translate(-50.873 4.091)" fill="#00b0ff" stroke="#00b0ff" stroke-width="0.5"/>
        </g>
      </g>
    </g>
  </g>
</svg>
