<svg id="security" xmlns="http://www.w3.org/2000/svg" width="26.047" height="25.857" viewBox="0 0 26.047 25.857">
  <path id="Path_878" data-name="Path 878" d="M25.767,12.082l7.317-7.236L40.4,12.08a.454.454,0,0,0,.637,0,.449.449,0,0,0,0-.635L33.083,3.421l-7.95,8.024a.449.449,0,0,0,0,.636.455.455,0,0,0,.635,0Z" transform="translate(-15.12 -3.421)" fill="#f8e0df"/>
  <path id="Path_879" data-name="Path 879" d="M29,15.624V28.983H41.574V15.624L35.287,9.406Zm11.35,1.252.326.093V20.9c0,3.661-2.51,5.17-5.222,6.255l-.167.066-.167-.066C32.408,26.07,29.9,24.561,29.9,20.9V16.968l.326-.093a10.188,10.188,0,0,0,4.713-2.993l.35-.435.351.435A10.2,10.2,0,0,0,40.35,16.875Z" transform="translate(-17.324 -6.718)" fill="#f8e0df"/>
  <path id="Path_880" data-name="Path 880" d="M20,45h1.347v.9H20Z" transform="translate(-12.366 -26.328)" fill="#f8e0df"/>
  <path id="Path_881" data-name="Path 881" d="M5.527,27.491H14.88V23.807a1.378,1.378,0,0,1-1.4-.3,1.338,1.338,0,0,1-.313-.5H8.345L5.133,26.614a.527.527,0,0,0,.394.877Z" transform="translate(-4.102 -14.208)" fill="#f8e0df"/>
  <path id="Path_882" data-name="Path 882" d="M20,41h1.347v.9H20Z" transform="translate(-12.366 -24.124)" fill="#f8e0df"/>
  <path id="Path_883" data-name="Path 883" d="M33,27.56c0,3.2,2.287,4.457,4.491,5.354,2.2-.9,4.491-2.152,4.491-5.354V24.3a11.133,11.133,0,0,1-4.491-2.8A11.138,11.138,0,0,1,33,24.3Zm2.142.251L36.553,29.5l3.259-4.889.747.5L36.633,31l-2.181-2.618Z" transform="translate(-19.528 -13.379)" fill="#f8e0df"/>
  <path id="Path_884" data-name="Path 884" d="M15.981,43.083V35H7v8.083ZM11.94,36.8h3.143v4.491H11.94ZM7.9,36.8h3.143v4.491H7.9Z" transform="translate(-5.204 -20.819)" fill="#f8e0df"/>
  <path id="Path_885" data-name="Path 885" d="M5,55H29.25v.9H5Z" transform="translate(-4.102 -31.837)" fill="#f8e0df"/>
  <path id="Path_886" data-name="Path 886" d="M11,41h1.347v.9H11Z" transform="translate(-7.407 -24.124)" fill="#f8e0df"/>
  <path id="Path_887" data-name="Path 887" d="M3,59H29.046v.9H3Z" transform="translate(-3 -34.041)" fill="#f8e0df"/>
  <path id="Path_888" data-name="Path 888" d="M11,45h1.347v.9H11Z" transform="translate(-7.407 -26.328)" fill="#f8e0df"/>
</svg>
