<svg id="settings" xmlns="http://www.w3.org/2000/svg" width="23.453" height="24.771" viewBox="0 0 23.453 24.771">
  <path id="Path_889" data-name="Path 889" d="M12.41,0,.683,10.126l.874,1.123.735-.635V24.77H22.52V10.608l.742.641.874-1.123Zm5.17,14.788q0,.1,0,.2L19.42,16.05,17.2,20.324l-1.845-1.062a5.1,5.1,0,0,1-.635.4v2.214H10.1V19.659a5.1,5.1,0,0,1-.635-.4L7.617,20.324,5.4,16.05l1.845-1.062q-.007-.2,0-.4L5.4,13.527,7.617,9.253l1.845,1.062a5.1,5.1,0,0,1,.635-.4V7.7h4.624V9.918a5.094,5.094,0,0,1,.635.4L17.2,9.253l2.218,4.274-1.845,1.062q0,.1,0,.2Z" transform="translate(-0.683)" fill="#f8e0df"/>
  <circle id="Ellipse_9" data-name="Ellipse 9" cx="0.766" cy="0.766" r="0.766" transform="translate(9.899 14.164)" fill="#f8e0df"/>
  <path id="Path_890" data-name="Path 890" d="M153.9,195.629a5.288,5.288,0,0,0-.067-1.609l1.6-.875-.995-1.819-1.6.876a5.653,5.653,0,0,0-2.075-1.232v-1.824h-2.073v1.824a5.652,5.652,0,0,0-2.075,1.232l-1.6-.876-.995,1.819,1.6.875a6,6,0,0,0,0,2.128l-1.6.875.995,1.819,1.6-.876a5.652,5.652,0,0,0,2.075,1.231v1.824h2.073V199.2a5.652,5.652,0,0,0,2.075-1.232l1.6.876.995-1.819-1.6-.875Zm-4.174,1.752a2.3,2.3,0,1,1,2.3-2.3A2.3,2.3,0,0,1,149.728,197.381Z" transform="translate(-138.205 -180.237)" fill="#f8e0df"/>
</svg>
