<svg id="tenant" xmlns="http://www.w3.org/2000/svg" width="26.885" height="26.885" viewBox="0 0 26.885 26.885">
  <path id="Path_902" data-name="Path 902" d="M81.6,233.194l.625,2.188,1.369-1.1L82.3,232.992Zm0,0" transform="translate(-76.874 -219.492)" fill="#f8e0df"/>
  <path id="Path_903" data-name="Path 903" d="M141.971,233.194l-.7-.2-1.295,1.295,1.369,1.1Zm0,0" transform="translate(-131.866 -219.492)" fill="#f8e0df"/>
  <path id="Path_904" data-name="Path 904" d="M106.781,211.834v-.545a3.679,3.679,0,0,1-2.781,0v.545l1.391,1.391Zm0,0" transform="translate(-97.974 -199.047)" fill="#f8e0df"/>
  <path id="Path_905" data-name="Path 905" d="M109.972,266.246l-1.109.887.837.837h.543l.837-.837Zm0,0" transform="translate(-102.556 -250.819)" fill="#f8e0df"/>
  <path id="Path_906" data-name="Path 906" d="M191.481,129.391a3.733,3.733,0,0,1-.032.464h.032a.927.927,0,0,0,0-1.854Zm0,0" transform="translate(-180.356 -120.584)" fill="#f8e0df"/>
  <path id="Path_907" data-name="Path 907" d="M48.927,5.562h.464a2.13,2.13,0,0,0,1.771-.944l.434-.647.391.293a6.549,6.549,0,0,0,3.883,1.3h.462l.012.462v.464a1.834,1.834,0,0,1,.927.258V3.765a1.981,1.981,0,0,0-1.5-1.925l-.125-.031-.6-.6A4.125,4.125,0,0,0,48,4.125V6.747a1.834,1.834,0,0,1,.927-.258Zm0,0" transform="translate(-45.219 0)" fill="#f8e0df"/>
  <path id="Path_908" data-name="Path 908" d="M114.934,312l-.7,2.781h1.595l-.7-2.781Zm0,0" transform="translate(-107.619 -293.922)" fill="#f8e0df"/>
  <path id="Path_909" data-name="Path 909" d="M85.562,92.367a7.5,7.5,0,0,1-3.591-1.191A3.054,3.054,0,0,1,80,92.347V94.7a2.781,2.781,0,1,0,5.562,0Zm0,0" transform="translate(-75.365 -85.893)" fill="#f8e0df"/>
  <path id="Path_910" data-name="Path 910" d="M149.434,246.349l-.4.264a1.5,1.5,0,0,1-.866.271,1.521,1.521,0,0,1-1.519-1.519v-.249a1.52,1.52,0,0,1,.648-1.245l3.005-2a2.318,2.318,0,0,0-.693-.339l-2.162-.624-1.007,3.526-.735-.588-.86.86.776,3.1h3.456l.354.177Zm0,0" transform="translate(-136.455 -226.951)" fill="#f8e0df"/>
  <path id="Path_911" data-name="Path 911" d="M240,269v2.718l2.427,1.214L240,274.147V277.1h10.2V269l-5.1-3.391Zm7.494-.961.771.514-.756,1.134h1.76v6.489h-8.344v-1.854h.927v.927h6.489v-4.635h-1.452l-2.648,3.972-1.79-1.79.655-.655.991.991,1.678-2.518h-3.924v.927h-.927v-1.854H246.4Zm0,0" transform="translate(-226.094 -250.22)" fill="#f8e0df"/>
  <path id="Path_912" data-name="Path 912" d="M224,380.945v1.281l1.281-.641Zm0,0" transform="translate(-211.021 -358.873)" fill="#f8e0df"/>
  <path id="Path_913" data-name="Path 913" d="M207.507,222.68l-7.627-5.071-7.637,5.076a.588.588,0,0,0-.243.479v.249a.592.592,0,0,0,.934.483l6.946-4.62,6.946,4.62a.592.592,0,0,0,.934-.483v-.249a.591.591,0,0,0-.253-.485Zm0,0" transform="translate(-180.875 -205.001)" fill="#f8e0df"/>
  <path id="Path_914" data-name="Path 914" d="M2.781,245.967h.927v1.854H5.664l.775-3.1-.86-.86-.735.588-1.007-3.525-2.162.623A2.329,2.329,0,0,0,0,243.772v5.44H1.92a1.851,1.851,0,0,1,.861-1.133Zm0,0" transform="translate(0 -226.963)" fill="#f8e0df"/>
  <path id="Path_915" data-name="Path 915" d="M48.927,129.854h.032a3.73,3.73,0,0,1-.032-.464V128a.927.927,0,1,0,0,1.854Zm0,0" transform="translate(-45.219 -120.584)" fill="#f8e0df"/>
  <path id="Path_916" data-name="Path 916" d="M96,376h6.489v1.854H96Zm0,0" transform="translate(-90.438 -354.214)" fill="#f8e0df"/>
  <path id="Path_917" data-name="Path 917" d="M48,376.927a.928.928,0,0,0,.927.927h.927V376h-.927A.928.928,0,0,0,48,376.927Zm0,0" transform="translate(-45.219 -354.214)" fill="#f8e0df"/>
</svg>
