<svg xmlns="http://www.w3.org/2000/svg" width="64" height="64" viewBox="0 0 64 64">
  <g id="Group_1294" data-name="Group 1294" transform="translate(-1816 -733)">
    <circle id="Ellipse_32" data-name="Ellipse 32" cx="32" cy="32" r="32" transform="translate(1816 733)" fill="rgba(0,229,255,0.2)"/>
    <g id="hourglass" transform="translate(1830.329 748)">
      <g id="Layer_1_64_" transform="translate(2.671)">
        <g id="Group_1293" data-name="Group 1293">
          <path id="Path_1020" data-name="Path 1020" d="M20.895,19.039a.758.758,0,0,0,1.517,0,3.779,3.779,0,0,1,.888-2.429,15.583,15.583,0,0,0,2.832-4.865.758.758,0,0,0-.715-1.01H17.889a.758.758,0,0,0-.716,1.01,15.611,15.611,0,0,0,2.832,4.865A3.778,3.778,0,0,1,20.895,19.039Z" transform="translate(-6.863 -3.112)" fill="#23c2d4"/>
          <path id="Path_1021" data-name="Path 1021" d="M20.852,26.4a.758.758,0,0,0-1.517,0,3.948,3.948,0,0,1-1.841,3.056,19.924,19.924,0,0,0-5.646,6.05.759.759,0,0,0,.661,1.13H27.68a.758.758,0,0,0,.66-1.13,19.921,19.921,0,0,0-5.645-6.05A3.946,3.946,0,0,1,20.852,26.4Z" transform="translate(-5.303 -7.434)" fill="#23c2d4"/>
          <path id="Path_1022" data-name="Path 1022" d="M30.735,30.342h-.454c-.521-5.9-3.978-10.435-6.665-13.654C26.3,13.47,29.759,8.937,30.282,3.034h.454a1.517,1.517,0,0,0,0-3.034H4.188a1.517,1.517,0,0,0,0,3.034h.454c.522,5.9,3.977,10.436,6.665,13.654-2.687,3.218-6.143,7.75-6.666,13.654H4.188a1.517,1.517,0,0,0,0,3.034H30.736a1.517,1.517,0,1,0,0-3.034Zm-23.053,0c.57-5.334,4.038-9.441,6.629-12.51l.138-.164a1.516,1.516,0,0,0,0-1.956l-.138-.163c-2.59-3.07-6.059-7.177-6.629-12.511H27.241c-.57,5.334-4.039,9.441-6.629,12.511l-.137.163a1.516,1.516,0,0,0,0,1.956l.138.164c2.59,3.069,6.058,7.176,6.628,12.51H7.682Z" transform="translate(-2.671)" fill="#23c2d4"/>
        </g>
      </g>
    </g>
  </g>
</svg>
