<svg xmlns="http://www.w3.org/2000/svg" width="64" height="64" viewBox="0 0 64 64">
  <g id="Group_1215" data-name="Group 1215" transform="translate(-1037 -577)">
    <circle id="Ellipse_32" data-name="Ellipse 32" cx="32" cy="32" r="32" transform="translate(1037 577)" fill="rgba(174,183,53,0.2)"/>
    <g id="surface1" transform="translate(1053 594)">
      <path id="Path_976" data-name="Path 976" d="M106.685,0a10.287,10.287,0,0,0-6.145,18.537V19.4a3.031,3.031,0,0,0-.217,4.353,3.035,3.035,0,0,0,1.322,4.973,5.108,5.108,0,0,0,10.081,0,3.035,3.035,0,0,0,1.322-4.973,3.031,3.031,0,0,0-.217-4.353v-.859A10.287,10.287,0,0,0,106.685,0Zm4.142,20.573a1.1,1.1,0,0,1,0,2.209h-8.285a1.1,1.1,0,1,1,0-2.209Zm-4.142,10.493a3.182,3.182,0,0,1-3.025-2.209h6.05A3.181,3.181,0,0,1,106.685,31.066Zm4.142-4.142h-8.285a1.1,1.1,0,1,1,0-2.208h8.285a1.1,1.1,0,0,1,0,2.208Zm.5-9.691a.967.967,0,0,0-.429.8v.6l-.069,0h-1.1V14.83l1.388-1.388a.967.967,0,0,0-1.367-1.367l-1.672,1.672a.967.967,0,0,0-.283.684V18.64h-2.209V14.429a.967.967,0,0,0-.283-.684l-1.672-1.672a.967.967,0,0,0-1.367,1.367l1.388,1.388V18.64h-1.1l-.069,0v-.6a.967.967,0,0,0-.429-.8,8.353,8.353,0,1,1,9.28,0Zm0,0" transform="translate(-90.185)" fill="#aeb735"/>
      <path id="Path_977" data-name="Path 977" d="M4,145.569a.967.967,0,0,0-.967-.967H.967a.967.967,0,1,0,0,1.934H3.038A.967.967,0,0,0,4,145.569Zm0,0" transform="translate(0 -135.282)" fill="#aeb735"/>
      <path id="Path_978" data-name="Path 978" d="M452.9,144.6h-2.071a.967.967,0,1,0,0,1.934H452.9a.967.967,0,1,0,0-1.934Zm0,0" transform="translate(-420.872 -135.282)" fill="#aeb735"/>
      <path id="Path_979" data-name="Path 979" d="M34.562,249.161,32.769,250.2a.967.967,0,1,0,.967,1.675l1.794-1.035a.967.967,0,1,0-.967-1.675Zm0,0" transform="translate(-30.205 -232.981)" fill="#aeb735"/>
      <path id="Path_980" data-name="Path 980" d="M422.849,27.069a.963.963,0,0,0,.482-.13l1.794-1.036a.967.967,0,0,0-.967-1.674l-1.794,1.036a.967.967,0,0,0,.484,1.8Zm0,0" transform="translate(-394.69 -22.546)" fill="#aeb735"/>
      <path id="Path_981" data-name="Path 981" d="M425.124,250.2l-1.794-1.035a.967.967,0,1,0-.967,1.674l1.794,1.035a.967.967,0,1,0,.967-1.675Zm0,0" transform="translate(-394.689 -232.984)" fill="#aeb735"/>
      <path id="Path_982" data-name="Path 982" d="M35.532,25.265,33.738,24.23a.967.967,0,0,0-.967,1.675l1.794,1.036a.967.967,0,1,0,.967-1.675Zm0,0" transform="translate(-30.207 -22.547)" fill="#aeb735"/>
    </g>
  </g>
</svg>
